<svg width="28" height="33" viewBox="0 0 28 33" fill="none" xmlns="http://www.w3.org/2000/svg">
<path d="M6.80155 30L6.79255 25.824L4.72255 29.28H4.20055L2.13055 25.878V30H1.01455V23.7H1.97755L4.47955 27.876L6.93655 23.7H7.89955L7.90855 30H6.80155ZM14.4703 27.624C14.4703 27.702 14.4643 27.813 14.4523 27.957H10.6813C10.7473 28.311 10.9183 28.593 11.1943 28.803C11.4763 29.007 11.8243 29.109 12.2383 29.109C12.7663 29.109 13.2013 28.935 13.5433 28.587L14.1463 29.28C13.9303 29.538 13.6573 29.733 13.3273 29.865C12.9973 29.997 12.6253 30.063 12.2113 30.063C11.6833 30.063 11.2183 29.958 10.8163 29.748C10.4143 29.538 10.1023 29.247 9.88026 28.875C9.66426 28.497 9.55626 28.071 9.55626 27.597C9.55626 27.129 9.66126 26.709 9.87126 26.337C10.0873 25.959 10.3843 25.665 10.7623 25.455C11.1403 25.245 11.5663 25.14 12.0403 25.14C12.5083 25.14 12.9253 25.245 13.2913 25.455C13.6633 25.659 13.9513 25.95 14.1553 26.328C14.3653 26.7 14.4703 27.132 14.4703 27.624ZM12.0403 26.04C11.6803 26.04 11.3743 26.148 11.1223 26.364C10.8763 26.574 10.7263 26.856 10.6723 27.21H13.3993C13.3513 26.862 13.2043 26.58 12.9583 26.364C12.7123 26.148 12.4063 26.04 12.0403 26.04ZM18.7279 25.14C19.3339 25.14 19.8199 25.317 20.1859 25.671C20.5519 26.025 20.7349 26.55 20.7349 27.246V30H19.6099V27.39C19.6099 26.97 19.5109 26.655 19.3129 26.445C19.1149 26.229 18.8329 26.121 18.4669 26.121C18.0529 26.121 17.7259 26.247 17.4859 26.499C17.2459 26.745 17.1259 27.102 17.1259 27.57V30H16.0009V25.194H17.0719V25.815C17.2579 25.593 17.4919 25.425 17.7739 25.311C18.0559 25.197 18.3739 25.14 18.7279 25.14ZM27.265 25.194V30H26.194V29.388C26.014 29.604 25.789 29.772 25.519 29.892C25.249 30.006 24.958 30.063 24.646 30.063C24.004 30.063 23.497 29.886 23.125 29.532C22.759 29.172 22.576 28.641 22.576 27.939V25.194H23.701V27.786C23.701 28.218 23.797 28.542 23.989 28.758C24.187 28.968 24.466 29.073 24.826 29.073C25.228 29.073 25.546 28.95 25.78 28.704C26.02 28.452 26.14 28.092 26.14 27.624V25.194H27.265Z" fill="#BFBFBF"/>
<rect x="1" y="14" width="13" height="3" rx="1.5" fill="#BFBFBF"/>
<rect x="1" y="7" width="19.5" height="3" rx="1.5" fill="#BFBFBF"/>
<rect x="1" width="26" height="3" rx="1.5" fill="#BFBFBF"/>
</svg>
