<svg width="22" height="26" viewBox="0 0 22 26" fill="none" xmlns="http://www.w3.org/2000/svg">
<path d="M10 3.5V1.94281C10 1.08778 9.06724 0.559658 8.33406 0.999564L4.07208 3.55675C3.36001 3.984 3.36001 5.016 4.07208 5.44324L8.33406 8.00043C9.06724 8.44034 10 7.91221 10 7.05719V6C14.5513 6 19.25 9.57903 19.25 14.1326C19.25 18.6861 15.5513 22.3867 11 22.3867C6.9149 22.3867 3.5166 19.4053 2.86335 15.5018C2.73801 14.7528 2.1344 14.1326 1.37501 14.1326C0.615616 14.1326 -0.0089953 14.7512 0.0845923 15.5048C0.759216 20.9372 5.38702 25.1381 11 25.1381C17.0775 25.1381 22 20.2131 22 14.1326C22 8.05201 16.0775 3.5 10 3.5Z" fill="#BFBFBF"/>
<path d="M7.6406 11.7V18H6.4706V12.681H5.1386V11.7H7.6406ZM11.9683 18.09C11.4643 18.09 11.0143 17.964 10.6183 17.712C10.2223 17.454 9.91034 17.082 9.68234 16.596C9.45434 16.104 9.34034 15.522 9.34034 14.85C9.34034 14.178 9.45434 13.599 9.68234 13.113C9.91034 12.621 10.2223 12.249 10.6183 11.997C11.0143 11.739 11.4643 11.61 11.9683 11.61C12.4723 11.61 12.9223 11.739 13.3183 11.997C13.7203 12.249 14.0353 12.621 14.2633 13.113C14.4913 13.599 14.6053 14.178 14.6053 14.85C14.6053 15.522 14.4913 16.104 14.2633 16.596C14.0353 17.082 13.7203 17.454 13.3183 17.712C12.9223 17.964 12.4723 18.09 11.9683 18.09ZM11.9683 17.073C12.4183 17.073 12.7723 16.887 13.0303 16.515C13.2943 16.143 13.4263 15.588 13.4263 14.85C13.4263 14.112 13.2943 13.557 13.0303 13.185C12.7723 12.813 12.4183 12.627 11.9683 12.627C11.5243 12.627 11.1703 12.813 10.9063 13.185C10.6483 13.557 10.5193 14.112 10.5193 14.85C10.5193 15.588 10.6483 16.143 10.9063 16.515C11.1703 16.887 11.5243 17.073 11.9683 17.073Z" fill="#BFBFBF"/>
</svg>
