<svg width="22" height="26" viewBox="0 0 22 26" fill="none" xmlns="http://www.w3.org/2000/svg">
<path d="M12 3.5V1.94281C12 1.08778 12.9328 0.55966 13.6659 0.999566L17.9279 3.55676C18.64 3.984 18.64 5.016 17.9279 5.44324L13.6659 8.00043C12.9328 8.44034 12 7.91221 12 7.05719V6C7.44875 6 2.75 9.57903 2.75 14.1326C2.75 18.6861 6.44875 22.3867 11 22.3867C15.0851 22.3867 18.4834 19.4053 19.1367 15.5018C19.262 14.7528 19.8656 14.1326 20.625 14.1326C21.3844 14.1326 22.009 14.7512 21.9154 15.5048C21.2408 20.9372 16.613 25.1381 11 25.1381C4.9225 25.1381 -1.90735e-06 20.2131 -1.90735e-06 14.1326C-1.90735e-06 8.05201 5.9225 3.5 12 3.5Z" fill="#BFBFBF"/>
<path d="M8.6406 11.7V18H7.4706V12.681H6.1386V11.7H8.6406ZM12.9683 18.09C12.4643 18.09 12.0143 17.964 11.6183 17.712C11.2223 17.454 10.9103 17.082 10.6823 16.596C10.4543 16.104 10.3403 15.522 10.3403 14.85C10.3403 14.178 10.4543 13.599 10.6823 13.113C10.9103 12.621 11.2223 12.249 11.6183 11.997C12.0143 11.739 12.4643 11.61 12.9683 11.61C13.4723 11.61 13.9223 11.739 14.3183 11.997C14.7203 12.249 15.0353 12.621 15.2633 13.113C15.4913 13.599 15.6053 14.178 15.6053 14.85C15.6053 15.522 15.4913 16.104 15.2633 16.596C15.0353 17.082 14.7203 17.454 14.3183 17.712C13.9223 17.964 13.4723 18.09 12.9683 18.09ZM12.9683 17.073C13.4183 17.073 13.7723 16.887 14.0303 16.515C14.2943 16.143 14.4263 15.588 14.4263 14.85C14.4263 14.112 14.2943 13.557 14.0303 13.185C13.7723 12.813 13.4183 12.627 12.9683 12.627C12.5243 12.627 12.1703 12.813 11.9063 13.185C11.6483 13.557 11.5193 14.112 11.5193 14.85C11.5193 15.588 11.6483 16.143 11.9063 16.515C12.1703 16.887 12.5243 17.073 12.9683 17.073Z" fill="#BFBFBF"/>
</svg>
