<?xml version="1.0" encoding="UTF-8"?>
<svg width="333px" height="840px" viewBox="0 0 333 840" version="1.1" xmlns="http://www.w3.org/2000/svg" xmlns:xlink="http://www.w3.org/1999/xlink">
    <!-- Generator: Sketch 64 (93537) - https://sketch.com -->
    <title>guitar</title>
    <desc>Created with Sketch.</desc>
    <defs>
        <linearGradient x1="35.7681969%" y1="18.4859807%" x2="50.0361436%" y2="148.630584%" id="linearGradient-1">
            <stop stop-color="#5F3114" offset="0%"></stop>
            <stop stop-color="#3D200D" offset="100%"></stop>
        </linearGradient>
        <linearGradient x1="49.9998477%" y1="0%" x2="49.9998477%" y2="100%" id="linearGradient-2">
            <stop stop-color="#290F0F" offset="0%"></stop>
            <stop stop-color="#220D0D" offset="100%"></stop>
        </linearGradient>
        <linearGradient x1="54.3383315%" y1="0%" x2="54.3383315%" y2="102.399438%" id="linearGradient-3">
            <stop stop-color="#160808" offset="0%"></stop>
            <stop stop-color="#0E0505" offset="100%"></stop>
        </linearGradient>
        <linearGradient x1="50%" y1="0%" x2="50%" y2="100%" id="linearGradient-4">
            <stop stop-color="#CBC9C6" offset="0%"></stop>
            <stop stop-color="#737270" offset="100%"></stop>
        </linearGradient>
        <linearGradient x1="50%" y1="0%" x2="50%" y2="100%" id="linearGradient-5">
            <stop stop-color="#CBC9C6" offset="0%"></stop>
            <stop stop-color="#737270" offset="100%"></stop>
        </linearGradient>
        <linearGradient x1="44.9994081%" y1="18.4860133%" x2="58.7932423%" y2="144.307962%" id="linearGradient-6">
            <stop stop-color="#5F3114" offset="0%"></stop>
            <stop stop-color="#3D200D" offset="100%"></stop>
        </linearGradient>
        <linearGradient x1="50%" y1="0%" x2="50%" y2="100%" id="linearGradient-7">
            <stop stop-color="#EFEDE9" offset="0%"></stop>
            <stop stop-color="#696967" offset="100%"></stop>
        </linearGradient>
        <linearGradient x1="49.9960477%" y1="0%" x2="49.9960477%" y2="100%" id="linearGradient-8">
            <stop stop-color="#EFEDE9" offset="0%"></stop>
            <stop stop-color="#696967" offset="100%"></stop>
        </linearGradient>
        <linearGradient x1="49.9960477%" y1="0%" x2="49.9960477%" y2="100%" id="linearGradient-9">
            <stop stop-color="#EFEDE9" offset="0%"></stop>
            <stop stop-color="#696967" offset="100%"></stop>
        </linearGradient>
        <linearGradient x1="50%" y1="0%" x2="50%" y2="100%" id="linearGradient-10">
            <stop stop-color="#EFEDE9" offset="0%"></stop>
            <stop stop-color="#696967" offset="100%"></stop>
        </linearGradient>
        <linearGradient x1="50.0018787%" y1="-3.37214884e-05%" x2="50.0018787%" y2="100.000068%" id="linearGradient-11">
            <stop stop-color="#CBC9C6" offset="0%"></stop>
            <stop stop-color="#999894" offset="100%"></stop>
        </linearGradient>
        <linearGradient x1="50.0022959%" y1="0%" x2="50.0022959%" y2="100.000068%" id="linearGradient-12">
            <stop stop-color="#CBC9C6" offset="0%"></stop>
            <stop stop-color="#999894" offset="100%"></stop>
        </linearGradient>
        <linearGradient x1="50.0022959%" y1="0%" x2="50.0022959%" y2="100.005275%" id="linearGradient-13">
            <stop stop-color="#CBC9C6" offset="0%"></stop>
            <stop stop-color="#999894" offset="100%"></stop>
        </linearGradient>
        <linearGradient x1="50.0044717%" y1="-3.37214884e-05%" x2="50.0044717%" y2="100.000068%" id="linearGradient-14">
            <stop stop-color="#CBC9C6" offset="0%"></stop>
            <stop stop-color="#999894" offset="100%"></stop>
        </linearGradient>
        <linearGradient x1="50.0040546%" y1="0%" x2="50.0040546%" y2="100.000068%" id="linearGradient-15">
            <stop stop-color="#CBC9C6" offset="0%"></stop>
            <stop stop-color="#999894" offset="100%"></stop>
        </linearGradient>
        <linearGradient x1="49.9992941%" y1="0%" x2="49.9992941%" y2="100.005275%" id="linearGradient-16">
            <stop stop-color="#CBC9C6" offset="0%"></stop>
            <stop stop-color="#999894" offset="100%"></stop>
        </linearGradient>
        <linearGradient x1="50.0111231%" y1="0%" x2="50.0111231%" y2="99.9998064%" id="linearGradient-17">
            <stop stop-color="#EFEDE9" offset="0%"></stop>
            <stop stop-color="#999895" offset="100%"></stop>
        </linearGradient>
        <linearGradient x1="50%" y1="0%" x2="50%" y2="100%" id="linearGradient-18">
            <stop stop-color="#EFEDE9" offset="0%"></stop>
            <stop stop-color="#999895" offset="100%"></stop>
        </linearGradient>
        <linearGradient x1="50.0114403%" y1="0%" x2="50.0114403%" y2="100.006336%" id="linearGradient-19">
            <stop stop-color="#EFEDE9" offset="0%"></stop>
            <stop stop-color="#999895" offset="100%"></stop>
        </linearGradient>
        <linearGradient x1="50.0031701%" y1="0%" x2="50.0031701%" y2="99.9998064%" id="linearGradient-20">
            <stop stop-color="#EFEDE9" offset="0%"></stop>
            <stop stop-color="#999895" offset="100%"></stop>
        </linearGradient>
        <linearGradient x1="50.0031701%" y1="0%" x2="50.0031701%" y2="99.9994263%" id="linearGradient-21">
            <stop stop-color="#EFEDE9" offset="0%"></stop>
            <stop stop-color="#999895" offset="100%"></stop>
        </linearGradient>
        <linearGradient x1="50.0012706%" y1="0%" x2="50.0012706%" y2="100.006336%" id="linearGradient-22">
            <stop stop-color="#EFEDE9" offset="0%"></stop>
            <stop stop-color="#999895" offset="100%"></stop>
        </linearGradient>
    </defs>
    <g id="Page-1" stroke="none" stroke-width="1" fill="none" fill-rule="evenodd">
        <g id="guitar" transform="translate(0.000000, 1.000000)">
            <g id="Group" transform="translate(0.000000, 420.000000)">
                <path d="M295.598,203.481 C273.44,170.028 269.533,151.123 288.201,105.815 C306.869,60.506 288.237,33.43 261.436,18.274 C233.514,2.509 187.786,0.683 166.492,0.683 C145.199,0.683 98.769,2.509 70.8478,18.274 C44.0469,33.43 26.0195,60.506 44.7834,105.815 C63.5472,151.123 59.5447,169.9 37.3867,203.481 C10.8739,243.438 -8.6904,288.33 3.9255,338.509 C16.9578,390.418 64.764,419 166.492,419 C268.22,419 316.027,390.418 329.091,338.509 C341.675,288.33 322.111,243.438 295.598,203.481 Z" id="Path" fill="url(#linearGradient-1)" fill-rule="nonzero"></path>
                <path d="M166.492,4.949 C142.712,4.949 98.916,7.151 72.7681,21.914 C42.1757,39.171 34.2275,66.205 49.1506,102.272 C69.1671,150.836 64.463,171.815 41.0727,206.976 C7.9174,256.835 -2.2693,297.338 8.0471,338.293 C21.186,390.451 71.5353,414.733 166.492,414.733 C261.448,414.733 311.798,390.451 324.936,338.293 C335.253,297.338 324.936,256.835 291.911,206.976 C268.553,171.815 263.817,150.706 283.833,102.272 C298.756,66.205 290.808,39.171 260.216,21.914 C234.068,7.151 190.271,4.949 166.492,4.949 Z" id="Path" stroke="#FFF7E8" stroke-width="0.5" opacity="0.6"></path>
            </g>
            <path d="M249.489,678.466 C248.712,677.041 247.424,675.964 245.885,675.453 C244.345,674.941 242.669,675.033 241.195,675.71 C233.465,677.983 225.323,678.487 217.372,677.184 C208.215,675.262 207.574,670.584 204.788,670.584 L128.196,670.584 C125.41,670.584 124.77,675.262 115.644,677.184 C107.682,678.488 99.53,677.984 91.789,675.71 C90.315,675.033 88.639,674.941 87.1,675.453 C85.56,675.964 84.272,677.041 83.496,678.466 C81.35,681.446 80.294,696.794 91.789,696.154 C102.204,695.731 112.621,696.953 122.656,699.774 L210.328,699.774 C220.363,696.953 230.78,695.731 241.195,696.154 C252.691,696.794 251.634,681.446 249.489,678.466 Z" id="Path" fill="url(#linearGradient-2)" fill-rule="nonzero"></path>
            <path d="M106.999,687.054 C106.999,687.637 106.826,688.207 106.502,688.691 C106.178,689.176 105.718,689.554 105.18,689.777 C104.642,690 104.049,690.058 103.478,689.945 C102.907,689.831 102.382,689.55 101.97,689.138 C101.558,688.726 101.277,688.2 101.163,687.629 C101.05,687.057 101.108,686.464 101.331,685.925 C101.554,685.387 101.932,684.926 102.416,684.602 C102.901,684.278 103.47,684.106 104.053,684.106 C104.834,684.106 105.583,684.416 106.136,684.969 C106.688,685.522 106.999,686.272 106.999,687.054 Z" id="Path" fill="#9E5C31" fill-rule="nonzero"></path>
            <path d="M231.877,687.054 C231.877,687.637 231.705,688.207 231.381,688.691 C231.057,689.176 230.597,689.554 230.059,689.777 C229.521,690 228.928,690.058 228.357,689.945 C227.785,689.831 227.261,689.55 226.849,689.138 C226.437,688.726 226.156,688.2 226.042,687.629 C225.929,687.057 225.987,686.464 226.21,685.925 C226.433,685.387 226.811,684.926 227.295,684.602 C227.779,684.278 228.349,684.106 228.932,684.106 C229.713,684.106 230.462,684.416 231.015,684.969 C231.567,685.522 231.877,686.272 231.877,687.054 Z" id="Path" fill="#9E5C31" fill-rule="nonzero"></path>
            <path d="M203.283,675.807 C203.306,676.013 203.287,676.222 203.228,676.421 C203.169,676.62 203.071,676.805 202.94,676.966 C202.809,677.127 202.647,677.26 202.464,677.358 C202.281,677.456 202.081,677.517 201.875,677.537 L130.565,685.483 C130.154,685.529 129.741,685.409 129.417,685.151 C129.093,684.893 128.885,684.517 128.836,684.106 C128.791,683.685 128.914,683.264 129.178,682.934 C129.442,682.604 129.826,682.392 130.245,682.343 L201.554,674.397 C201.966,674.352 202.379,674.471 202.702,674.729 C203.026,674.987 203.235,675.363 203.283,675.775 L203.283,675.807 Z" id="Path" fill="#F7E7C8" fill-rule="nonzero"></path>
            <path d="M231.703,549.7 C240.103,513.664 217.72,477.636 181.708,469.23 C145.697,460.824 109.695,483.223 101.295,519.26 C92.895,555.296 115.278,591.324 151.29,599.729 C187.301,608.135 223.303,585.736 231.703,549.7 Z" id="Path" fill="#462208" fill-rule="nonzero"></path>
            <path d="M166.492,588.747 C196.432,588.747 220.702,564.459 220.702,534.498 C220.702,504.538 196.432,480.25 166.492,480.25 C136.553,480.25 112.282,504.538 112.282,534.498 C112.282,564.459 136.553,588.747 166.492,588.747 Z" id="Path" stroke="#B4764F" stroke-width="1.5" opacity="0.2"></path>
            <path d="M247.503,519.63 C228.547,480.923 208.054,465.158 190.347,456.538 L190.347,611.24 C205.988,624.789 222.548,622.194 230.447,619.755 C233.676,618.759 236.524,616.903 239.205,614.846 L241.316,613.227 C246.909,608.937 251.339,603.314 254.199,596.871 C255.454,594.046 256.45,591.127 256.923,588.072 C258.633,577.051 261.28,547.76 247.503,519.63 Z" id="Path" fill="url(#linearGradient-3)" fill-rule="nonzero"></path>
            <polygon id="Path" fill="#543121" fill-rule="nonzero" points="191.724 498.835 141.26 498.835 147.472 74.1731 185.512 74.1731"></polygon>
            <path d="M166.492,578.397 C190.72,578.397 210.36,558.743 210.36,534.498 C210.36,510.254 190.72,490.6 166.492,490.6 C142.265,490.6 122.624,510.254 122.624,534.498 C122.624,558.743 142.265,578.397 166.492,578.397 Z" id="Path" fill="#51301B" fill-rule="nonzero"></path>
            <path d="M187.049,171.222 C187.049,171.362 186.911,171.496 186.665,171.595 C186.419,171.694 186.085,171.75 185.736,171.75 L146.992,171.75 C146.644,171.75 146.31,171.694 146.064,171.595 C145.817,171.496 145.679,171.362 145.679,171.222 C145.687,171.083 145.828,170.951 146.073,170.853 C146.317,170.754 146.646,170.698 146.992,170.694 L185.736,170.694 C186.082,170.698 186.411,170.754 186.656,170.853 C186.9,170.951 187.041,171.083 187.049,171.222 Z" id="Path" fill="#E8E3D8" fill-rule="nonzero"></path>
            <path d="M188.266,200.701 C188.266,200.841 188.128,200.975 187.882,201.074 C187.635,201.173 187.301,201.229 186.953,201.229 L146.031,201.229 C145.686,201.226 145.356,201.169 145.112,201.071 C144.868,200.972 144.727,200.84 144.719,200.701 C144.719,200.561 144.857,200.427 145.103,200.328 C145.349,200.229 145.683,200.174 146.031,200.174 L187.049,200.174 C187.397,200.174 187.731,200.229 187.978,200.328 C188.224,200.427 188.362,200.561 188.362,200.701 L188.266,200.701 Z" id="Path" fill="#E8E3D8" fill-rule="nonzero"></path>
            <path d="M188.266,230.149 C188.266,230.288 188.128,230.423 187.882,230.522 C187.635,230.621 187.301,230.676 186.953,230.676 L146.031,230.676 C145.683,230.676 145.349,230.621 145.103,230.522 C144.857,230.423 144.719,230.288 144.719,230.149 C144.719,230.009 144.857,229.874 145.103,229.775 C145.349,229.677 145.683,229.621 146.031,229.621 L187.049,229.621 C187.397,229.621 187.731,229.677 187.978,229.775 C188.224,229.874 188.362,230.009 188.362,230.149 L188.266,230.149 Z" id="Path" fill="#E8E3D8" fill-rule="nonzero"></path>
            <path d="M188.586,256.456 C188.586,256.595 188.448,256.73 188.202,256.829 C187.956,256.928 187.622,256.983 187.273,256.983 L145.647,256.983 C145.299,256.983 144.965,256.928 144.719,256.829 C144.473,256.73 144.334,256.595 144.334,256.456 C144.334,256.316 144.473,256.181 144.719,256.082 C144.965,255.984 145.299,255.928 145.647,255.928 L187.273,255.928 C187.622,255.928 187.956,255.984 188.202,256.082 C188.448,256.181 188.586,256.316 188.586,256.456 Z" id="Path" fill="#E8E3D8" fill-rule="nonzero"></path>
            <path d="M189.067,279.719 C189.067,279.858 188.928,279.993 188.682,280.092 C188.436,280.191 188.102,280.246 187.754,280.246 L145.231,280.246 C144.883,280.246 144.549,280.191 144.303,280.092 C144.056,279.993 143.918,279.858 143.918,279.719 C143.926,279.58 144.067,279.447 144.311,279.349 C144.556,279.251 144.885,279.194 145.231,279.191 L187.754,279.191 C188.099,279.194 188.428,279.251 188.673,279.349 C188.917,279.447 189.058,279.58 189.067,279.719 Z" id="Path" fill="#E8E3D8" fill-rule="nonzero"></path>
            <path d="M189.291,304.231 C189.291,304.371 189.152,304.505 188.906,304.604 C188.66,304.703 188.326,304.759 187.978,304.759 L145.007,304.759 C144.658,304.759 144.325,304.703 144.078,304.604 C143.832,304.505 143.694,304.371 143.694,304.231 C143.694,304.091 143.832,303.957 144.078,303.858 C144.325,303.759 144.658,303.704 145.007,303.704 L187.978,303.704 C188.326,303.704 188.66,303.759 188.906,303.858 C189.152,303.957 189.291,304.091 189.291,304.231 Z" id="Path" fill="#E8E3D8" fill-rule="nonzero"></path>
            <path d="M189.707,325.443 C189.707,325.583 189.569,325.718 189.322,325.816 C189.076,325.915 188.742,325.971 188.394,325.971 L144.59,325.971 C144.242,325.971 143.908,325.915 143.662,325.816 C143.416,325.718 143.278,325.583 143.278,325.443 C143.286,325.305 143.427,325.172 143.671,325.074 C143.916,324.976 144.245,324.919 144.59,324.916 L188.394,324.916 C188.74,324.919 189.069,324.976 189.313,325.074 C189.558,325.172 189.699,325.305 189.707,325.443 Z" id="Path" fill="#E8E3D8" fill-rule="nonzero"></path>
            <path d="M190.475,347.233 C190.475,347.373 190.337,347.507 190.091,347.606 C189.845,347.705 189.511,347.76 189.162,347.76 L143.822,347.76 C143.474,347.76 143.14,347.705 142.894,347.606 C142.647,347.507 142.509,347.373 142.509,347.233 C142.517,347.094 142.658,346.961 142.903,346.863 C143.147,346.765 143.476,346.708 143.822,346.705 L189.162,346.705 C189.508,346.708 189.837,346.765 190.082,346.863 C190.326,346.961 190.467,347.094 190.475,347.233 Z" id="Path" fill="#E8E3D8" fill-rule="nonzero"></path>
            <path d="M190.86,367.323 C190.86,367.463 190.721,367.597 190.475,367.696 C190.229,367.795 189.895,367.851 189.547,367.851 L143.438,367.851 C143.092,367.848 142.763,367.791 142.518,367.693 C142.274,367.595 142.133,367.462 142.125,367.323 C142.125,367.183 142.263,367.049 142.509,366.95 C142.756,366.851 143.09,366.796 143.438,366.796 L189.547,366.796 C189.895,366.796 190.229,366.851 190.475,366.95 C190.721,367.049 190.86,367.183 190.86,367.323 Z" id="Path" fill="#E8E3D8" fill-rule="nonzero"></path>
            <path d="M191.02,385.267 C191.02,385.407 190.881,385.541 190.635,385.64 C190.389,385.739 190.055,385.794 189.707,385.794 L143.31,385.794 C143.134,385.796 142.96,385.783 142.797,385.758 C142.634,385.732 142.486,385.693 142.36,385.644 C142.235,385.595 142.136,385.536 142.068,385.472 C142,385.407 141.965,385.337 141.965,385.267 C141.965,385.196 142,385.127 142.068,385.062 C142.136,384.997 142.235,384.938 142.36,384.889 C142.486,384.84 142.634,384.801 142.797,384.776 C142.96,384.75 143.134,384.738 143.31,384.739 L189.707,384.739 C190.055,384.739 190.389,384.795 190.635,384.894 C190.881,384.993 191.02,385.127 191.02,385.267 Z" id="Path" fill="#E8E3D8" fill-rule="nonzero"></path>
            <path d="M191.244,403.435 C191.236,403.574 191.095,403.707 190.85,403.805 C190.606,403.903 190.277,403.96 189.931,403.963 L143.053,403.963 C142.708,403.96 142.379,403.903 142.134,403.805 C141.89,403.707 141.749,403.574 141.741,403.435 C141.741,403.295 141.879,403.161 142.125,403.062 C142.371,402.963 142.705,402.908 143.053,402.908 L189.931,402.908 C190.279,402.908 190.613,402.963 190.859,403.062 C191.106,403.161 191.244,403.295 191.244,403.435 Z" id="Path" fill="#E8E3D8" fill-rule="nonzero"></path>
            <path d="M191.372,421.517 C191.372,421.657 191.234,421.791 190.987,421.89 C190.741,421.989 190.407,422.045 190.059,422.045 L142.925,422.045 C142.577,422.045 142.243,421.989 141.997,421.89 C141.751,421.791 141.612,421.657 141.612,421.517 C141.621,421.378 141.762,421.246 142.006,421.148 C142.25,421.049 142.58,420.993 142.925,420.99 L190.059,420.99 C190.407,420.99 190.741,421.045 190.987,421.144 C191.234,421.243 191.372,421.377 191.372,421.517 Z" id="Path" fill="#E8E3D8" fill-rule="nonzero"></path>
            <path d="M191.532,435.959 C191.532,436.099 191.394,436.233 191.148,436.332 C190.901,436.431 190.567,436.486 190.219,436.486 L142.765,436.486 C142.417,436.486 142.083,436.431 141.837,436.332 C141.591,436.233 141.452,436.099 141.452,435.959 C141.452,435.819 141.591,435.685 141.837,435.586 C142.083,435.487 142.417,435.431 142.765,435.431 L190.251,435.431 C190.599,435.431 190.933,435.487 191.18,435.586 C191.426,435.685 191.564,435.819 191.564,435.959 L191.532,435.959 Z" id="Path" fill="#E8E3D8" fill-rule="nonzero"></path>
            <path d="M191.596,450.57 C191.588,450.709 191.447,450.841 191.202,450.94 C190.958,451.038 190.629,451.095 190.283,451.098 L142.701,451.098 C142.355,451.095 142.026,451.038 141.782,450.94 C141.537,450.841 141.396,450.709 141.388,450.57 C141.388,450.43 141.527,450.296 141.773,450.197 C142.019,450.098 142.353,450.043 142.701,450.043 L190.251,450.043 C190.599,450.043 190.933,450.098 191.179,450.197 C191.426,450.296 191.564,450.43 191.564,450.57 L191.596,450.57 Z" id="Path" fill="#E8E3D8" fill-rule="nonzero"></path>
            <path d="M192.044,466.207 C192.036,466.346 191.895,466.478 191.651,466.577 C191.406,466.675 191.077,466.731 190.732,466.735 L142.221,466.735 C141.875,466.731 141.546,466.675 141.302,466.577 C141.057,466.478 140.916,466.346 140.908,466.207 C140.908,466.067 141.046,465.933 141.293,465.834 C141.539,465.735 141.873,465.68 142.221,465.68 L190.7,465.68 C191.048,465.68 191.382,465.735 191.628,465.834 C191.874,465.933 192.012,466.067 192.012,466.207 L192.044,466.207 Z" id="Path" fill="#E8E3D8" fill-rule="nonzero"></path>
            <path d="M192.525,478.8 C192.525,478.94 192.386,479.074 192.14,479.173 C191.894,479.272 191.56,479.327 191.212,479.327 L141.773,479.327 C141.424,479.327 141.09,479.272 140.844,479.173 C140.598,479.074 140.46,478.94 140.46,478.8 C140.46,478.66 140.598,478.526 140.844,478.427 C141.09,478.328 141.424,478.272 141.773,478.272 L191.212,478.272 C191.56,478.272 191.894,478.328 192.14,478.427 C192.386,478.526 192.525,478.66 192.525,478.8 Z" id="Path" fill="#E8E3D8" fill-rule="nonzero"></path>
            <path d="M192.204,491.008 C192.204,491.148 192.066,491.282 191.82,491.381 C191.574,491.48 191.24,491.536 190.892,491.536 L142.221,491.536 C141.873,491.536 141.539,491.48 141.293,491.381 C141.046,491.282 140.908,491.148 140.908,491.008 C140.908,490.868 141.046,490.734 141.293,490.635 C141.539,490.536 141.873,490.48 142.221,490.48 L190.892,490.48 C191.24,490.48 191.574,490.536 191.82,490.635 C192.066,490.734 192.204,490.868 192.204,491.008 Z" id="Path" fill="#E8E3D8" fill-rule="nonzero"></path>
            <path d="M169.662,215.282 C169.662,215.915 169.474,216.535 169.123,217.062 C168.771,217.589 168.271,217.999 167.686,218.242 C167.101,218.485 166.457,218.548 165.836,218.424 C165.214,218.301 164.644,217.996 164.196,217.547 C163.748,217.099 163.443,216.528 163.32,215.907 C163.196,215.285 163.26,214.641 163.502,214.055 C163.744,213.47 164.155,212.97 164.681,212.617 C165.208,212.265 165.827,212.077 166.46,212.077 C167.309,212.077 168.124,212.415 168.724,213.016 C169.325,213.617 169.662,214.432 169.662,215.282 Z" id="Path" fill-opacity="0.5" fill="#D4D4D4" fill-rule="nonzero"></path>
            <path d="M169.662,268.037 C169.662,268.887 169.325,269.702 168.724,270.303 C168.124,270.904 167.309,271.242 166.46,271.242 C165.611,271.242 164.797,270.904 164.196,270.303 C163.596,269.702 163.258,268.887 163.258,268.037 C163.258,267.187 163.596,266.372 164.196,265.772 C164.797,265.171 165.611,264.833 166.46,264.833 C167.309,264.833 168.124,265.171 168.724,265.772 C169.325,266.372 169.662,267.187 169.662,268.037 Z" id="Path" fill-opacity="0.5" fill="#D4D4D4" fill-rule="nonzero"></path>
            <path d="M169.662,314.462 C169.662,315.096 169.474,315.715 169.123,316.242 C168.771,316.769 168.271,317.18 167.686,317.422 C167.101,317.665 166.457,317.728 165.836,317.605 C165.214,317.481 164.644,317.176 164.196,316.728 C163.748,316.28 163.443,315.709 163.32,315.087 C163.196,314.466 163.26,313.821 163.502,313.236 C163.744,312.65 164.155,312.15 164.681,311.798 C165.208,311.446 165.827,311.258 166.46,311.258 C167.309,311.258 168.124,311.595 168.724,312.196 C169.325,312.797 169.662,313.612 169.662,314.462 Z" id="Path" fill-opacity="0.5" fill="#D4D4D4" fill-rule="nonzero"></path>
            <path d="M169.662,428.798 C169.662,429.648 169.325,430.463 168.724,431.064 C168.124,431.665 167.309,432.003 166.46,432.003 C165.611,432.003 164.797,431.665 164.196,431.064 C163.596,430.463 163.258,429.648 163.258,428.798 C163.258,427.948 163.596,427.133 164.196,426.532 C164.797,425.932 165.611,425.594 166.46,425.594 C167.309,425.594 168.124,425.932 168.724,426.532 C169.325,427.133 169.662,427.948 169.662,428.798 Z" id="Path" fill-opacity="0.5" fill="#D4D4D4" fill-rule="nonzero"></path>
            <path d="M169.662,459.012 C169.662,459.646 169.474,460.266 169.123,460.793 C168.771,461.32 168.271,461.73 167.686,461.973 C167.101,462.215 166.457,462.279 165.836,462.155 C165.214,462.031 164.644,461.726 164.196,461.278 C163.748,460.83 163.443,460.259 163.32,459.637 C163.196,459.016 163.26,458.372 163.502,457.786 C163.744,457.201 164.155,456.7 164.681,456.348 C165.208,455.996 165.827,455.808 166.46,455.808 C167.309,455.808 168.124,456.146 168.724,456.747 C169.325,457.348 169.662,458.163 169.662,459.012 Z" id="Path" fill-opacity="0.5" fill="#D4D4D4" fill-rule="nonzero"></path>
            <path d="M156.95,376.714 C156.95,377.347 156.762,377.967 156.411,378.494 C156.059,379.021 155.559,379.432 154.974,379.674 C154.389,379.917 153.745,379.98 153.124,379.856 C152.502,379.733 151.932,379.428 151.484,378.979 C151.036,378.531 150.731,377.96 150.608,377.339 C150.484,376.717 150.548,376.073 150.79,375.487 C151.032,374.902 151.443,374.402 151.969,374.049 C152.496,373.697 153.115,373.509 153.748,373.509 C154.597,373.509 155.412,373.847 156.012,374.448 C156.613,375.049 156.95,375.864 156.95,376.714 Z" id="Path" fill-opacity="0.5" fill="#D4D4D4" fill-rule="nonzero"></path>
            <path d="M182.342,376.714 C182.342,377.347 182.154,377.967 181.803,378.494 C181.451,379.021 180.951,379.432 180.366,379.674 C179.781,379.917 179.137,379.98 178.516,379.856 C177.894,379.733 177.324,379.428 176.876,378.979 C176.428,378.531 176.123,377.96 176,377.339 C175.876,376.717 175.94,376.073 176.182,375.487 C176.424,374.902 176.835,374.402 177.361,374.049 C177.888,373.697 178.507,373.509 179.14,373.509 C179.989,373.509 180.804,373.847 181.404,374.448 C182.005,375.049 182.342,375.864 182.342,376.714 Z" id="Path" fill-opacity="0.5" fill="#D4D4D4" fill-rule="nonzero"></path>
            <path d="M166.492,572.405 C187.413,572.405 204.372,555.433 204.372,534.498 C204.372,513.563 187.413,496.592 166.492,496.592 C145.572,496.592 128.612,513.563 128.612,534.498 C128.612,555.433 145.572,572.405 166.492,572.405 Z" id="Path" fill="#0E0E0D" fill-rule="nonzero"></path>
            <g id="Group" transform="translate(115.000000, 0.000000)" fill-rule="nonzero">
                <polygon id="Path" fill="url(#linearGradient-4)" points="94.816 31.0022 79.222 31.0022 79.222 35.1998 94.816 35.1998"></polygon>
                <polygon id="Path" fill="url(#linearGradient-4)" points="94.816 59.0394 79.222 59.0394 79.222 63.237 94.816 63.237"></polygon>
                <polygon id="Path" fill="url(#linearGradient-5)" points="94.816 87.0769 79.222 87.0769 79.222 91.274 94.816 91.274"></polygon>
                <polygon id="Path" fill="url(#linearGradient-4)" points="23.795 31.0022 8.201 31.0022 8.201 35.1998 23.795 35.1998"></polygon>
                <polygon id="Path" fill="url(#linearGradient-4)" points="23.795 59.0394 8.201 59.0394 8.201 63.237 23.795 63.237"></polygon>
                <polygon id="Path" fill="url(#linearGradient-5)" points="23.795 87.0769 8.201 87.0769 8.201 91.274 23.795 91.274"></polygon>
                <path d="M83.838,15.5896 L83.838,5.2512 C83.838,4.6044 83.521,4.0101 82.931,3.7452 C80.473,2.6419 72.411,0 51.56,0 C30.709,0 22.562,2.6419 20.069,3.7452 C19.471,4.01 19.147,4.6104 19.147,5.2647 L19.147,15.5896 L19.147,49.4267 L19.147,94.96 L19.147,103.511 C19.147,104.616 20.081,105.581 20.993,106.205 C25.587,109.352 32.024,122.755 32.024,137.095 L70.961,137.095 C70.961,122.802 77.458,110.241 81.986,107.243 C82.907,106.634 83.838,105.671 83.838,104.566 L83.838,96.015 L83.838,49.4267 L83.838,15.5896 Z" id="Path" stroke="#BBA692" stroke-width="0.5" fill="url(#linearGradient-6)"></path>
                <path d="M100.619,37.0407 L100.377,37.3227 C99.763,38.0398 99.033,38.649 98.218,39.1251 C97.835,39.3487 97.435,39.5419 97.021,39.7028 L96.841,39.773 C95.579,40.2642 94.237,40.5162 92.883,40.5162 L92.221,40.5162 C90.724,40.5162 89.51,39.3026 89.51,37.8055 L89.51,36.2957 L89.51,29.9651 L89.51,28.4554 C89.51,26.9583 90.724,25.7446 92.221,25.7446 L92.883,25.7446 C94.237,25.7446 95.579,25.9967 96.841,26.4878 L97.021,26.558 C97.435,26.7189 97.835,26.9121 98.218,27.1357 C99.033,27.6118 99.763,28.221 100.377,28.9381 L100.619,29.2202 C101.042,29.7139 101.387,30.2691 101.643,30.8667 L101.745,31.1054 C102.019,31.7453 102.16,32.4342 102.16,33.1304 C102.16,33.8266 102.019,34.5155 101.745,35.1555 L101.643,35.3942 C101.387,35.9917 101.042,36.5469 100.619,37.0407 Z" id="Path" fill="url(#linearGradient-7)"></path>
                <path d="M2.501,37.0407 L2.742,37.3227 C3.357,38.0398 4.086,38.649 4.902,39.1251 C5.285,39.3487 5.685,39.5419 6.098,39.7028 L6.279,39.773 C7.541,40.2642 8.883,40.5162 10.237,40.5162 L10.899,40.5162 C12.396,40.5162 13.609,39.3026 13.609,37.8055 L13.61,36.2957 L13.61,29.9651 L13.61,28.4554 C13.61,26.9583 12.396,25.7446 10.899,25.7446 L10.237,25.7446 C8.883,25.7446 7.541,25.9967 6.279,26.4878 L6.098,26.558 C5.685,26.7189 5.285,26.9121 4.902,27.1357 C4.086,27.6118 3.357,28.221 2.742,28.9381 L2.501,29.2202 C2.078,29.7139 1.733,30.2691 1.477,30.8667 L1.375,31.1054 C1.101,31.7453 0.959,32.4342 0.959,33.1304 C0.959,33.8266 1.101,34.5155 1.375,35.1555 L1.477,35.3942 C1.733,35.9917 2.078,36.5469 2.501,37.0407 Z" id="Path" fill="url(#linearGradient-8)"></path>
                <path d="M2.501,65.1067 L2.742,65.3887 C3.357,66.1058 4.086,66.7151 4.902,67.1911 C5.285,67.4148 5.685,67.6079 6.098,67.7688 L6.279,67.839 C7.541,68.3302 8.883,68.5822 10.237,68.5822 L10.899,68.5822 C12.396,68.5822 13.609,67.3686 13.609,65.8715 L13.61,64.3618 L13.61,58.0311 L13.61,56.5214 C13.61,55.0243 12.396,53.8107 10.899,53.8107 L10.237,53.8107 C8.883,53.8107 7.541,54.0627 6.279,54.5539 L6.098,54.6241 C5.685,54.785 5.285,54.9781 4.902,55.2018 C4.086,55.6778 3.357,56.2871 2.742,57.0042 L2.501,57.2862 C2.078,57.7799 1.733,58.3351 1.477,58.9327 L1.375,59.1714 C1.101,59.8114 0.959,60.5003 0.959,61.1964 C0.959,61.8926 1.101,62.5815 1.375,63.2215 L1.477,63.4602 C1.733,64.0578 2.078,64.613 2.501,65.1067 Z" id="Path" fill="url(#linearGradient-9)"></path>
                <path d="M2.501,92.962 L2.742,93.244 C3.357,93.961 4.086,94.57 4.902,95.046 C5.285,95.27 5.685,95.463 6.098,95.624 L6.279,95.694 C7.541,96.185 8.883,96.437 10.237,96.437 L10.899,96.437 C12.396,96.437 13.609,95.223 13.609,93.726 L13.61,92.217 L13.61,85.886 L13.61,84.3763 C13.61,82.8792 12.396,81.6655 10.899,81.6655 L10.237,81.6655 C8.883,81.6655 7.541,81.9176 6.279,82.4087 L6.098,82.4789 C5.685,82.6398 5.285,82.833 4.902,83.0566 C4.086,83.5327 3.357,84.1419 2.742,84.859 L2.501,85.1411 C2.078,85.6348 1.733,86.19 1.477,86.7876 L1.375,87.0263 C1.101,87.6662 0.959,88.3551 0.959,89.051 C0.959,89.747 1.101,90.436 1.375,91.076 L1.477,91.315 C1.733,91.913 2.078,92.468 2.501,92.962 Z" id="Path" fill="url(#linearGradient-9)"></path>
                <path d="M100.619,65.1067 L100.377,65.3887 C99.763,66.1058 99.033,66.7151 98.218,67.1911 C97.835,67.4148 97.435,67.6079 97.021,67.7688 L96.841,67.839 C95.579,68.3302 94.237,68.5822 92.883,68.5822 L92.221,68.5822 C90.724,68.5822 89.51,67.3686 89.51,65.8715 L89.51,64.3618 L89.51,58.0311 L89.51,56.5214 C89.51,55.0243 90.724,53.8107 92.221,53.8107 L92.883,53.8107 C94.237,53.8107 95.579,54.0627 96.841,54.5539 L97.021,54.6241 C97.435,54.785 97.835,54.9781 98.218,55.2018 C99.033,55.6778 99.763,56.2871 100.377,57.0042 L100.619,57.2862 C101.042,57.7799 101.387,58.3351 101.643,58.9327 L101.745,59.1714 C102.019,59.8114 102.16,60.5003 102.16,61.1964 C102.16,61.8926 102.019,62.5815 101.745,63.2215 L101.643,63.4602 C101.387,64.0578 101.042,64.613 100.619,65.1067 Z" id="Path" fill="url(#linearGradient-10)"></path>
                <path d="M100.619,92.962 L100.377,93.244 C99.763,93.961 99.033,94.57 98.218,95.046 C97.835,95.27 97.435,95.463 97.021,95.624 L96.841,95.694 C95.579,96.185 94.237,96.437 92.883,96.437 L92.221,96.437 C90.724,96.437 89.51,95.223 89.51,93.726 L89.51,92.217 L89.51,85.886 L89.51,84.3763 C89.51,82.8792 90.724,81.6655 92.221,81.6655 L92.883,81.6655 C94.237,81.6655 95.579,81.9176 96.841,82.4087 L97.021,82.4789 C97.435,82.6398 97.835,82.833 98.218,83.0566 C99.033,83.5327 99.763,84.1419 100.377,84.859 L100.619,85.1411 C101.042,85.6348 101.387,86.19 101.643,86.7876 L101.745,87.0263 C102.019,87.6662 102.16,88.3551 102.16,89.051 C102.16,89.747 102.019,90.436 101.745,91.076 L101.643,91.315 C101.387,91.913 101.042,92.468 100.619,92.962 Z" id="Path" fill="url(#linearGradient-10)"></path>
                <path d="M35.2580876,33.1169 C35.2580876,34.1562 34.95,35.1722 34.373,36.0364 C33.796,36.9006 32.976,37.5741 32.016,37.9719 C31.057,38.3696 30.001,38.4737 28.982,38.2709 C27.964,38.0682 27.028,37.5677 26.293,36.8327 C25.559,36.0978 25.059,35.1615 24.856,34.1421 C24.654,33.1227 24.758,32.0661 25.155,31.1059 C25.553,30.1457 26.226,29.325 27.089,28.7475 C27.953,28.1701 28.968,27.8618035 30.007,27.8618035 C30.697,27.8577 31.382,27.9907 32.021,28.2533 C32.66,28.5158 33.241,28.9028 33.729,29.3916 C34.218,29.8804 34.605,30.4614 34.867,31.1009 C35.129,31.7404 35.262,32.4256 35.2580876,33.1169 Z" id="Path" fill="url(#linearGradient-11)"></path>
                <path d="M35.258,61.2504 C35.258,62.2897 34.95,63.3057 34.373,64.1699 C33.796,65.0341 32.976,65.7076 32.016,66.1054 C31.057,66.5031 30.001,66.6072 28.982,66.4044 C27.964,66.2017 27.028,65.7012 26.293,64.9662 C25.559,64.2313 25.059,63.2949 24.856,62.2756 C24.654,61.2562 24.758,60.1996 25.155,59.2394 C25.553,58.2791 26.226,57.4584 27.089,56.881 C27.953,56.3036 28.968,55.9954 30.007,55.9954 C31.399,55.9954 32.735,56.549 33.72,57.5345 C34.705,58.52 35.258,59.8567 35.258,61.2504 Z" id="Path" fill="url(#linearGradient-12)"></path>
                <path d="M33.625,89.192 C33.625,90.231 33.317,91.247 32.74,92.111 C32.163,92.975 31.343,93.649 30.383,94.046 C29.424,94.444 28.368,94.548 27.349,94.346 C26.331,94.143 25.395,93.642 24.66,92.907 C23.926,92.172 23.426,91.236 23.223,90.217 C23.021,89.197 23.125,88.1407 23.522,87.1805 C23.92,86.2203 24.593,85.3996 25.456,84.8222 C26.32,84.2447 27.335,83.9365 28.374,83.9365 C29.766,83.9365 31.102,84.4902 32.087,85.4757 C33.072,86.4612 33.625,87.7978 33.625,89.192 Z" id="Path" fill="url(#linearGradient-13)"></path>
                <path d="M67.7259124,33.1169 C67.7259124,34.1562 68.035,35.1722 68.612,36.0364 C69.189,36.9006 70.009,37.5741 70.968,37.9719 C71.928,38.3696 72.984,38.4737 74.002,38.2709 C75.021,38.0682 75.957,37.5677 76.691,36.8327 C77.426,36.0978 77.926,35.1615 78.128,34.1421 C78.331,33.1227 78.227,32.0661 77.829,31.1059 C77.432,30.1457 76.759,29.325 75.895,28.7475 C75.032,28.1701 74.016,27.8618035 72.978,27.8618035 C72.287,27.8577 71.602,27.9907 70.963,28.2533 C70.324,28.5158 69.744,28.9028 69.255,29.3916 C68.767,29.8804 68.38,30.4614 68.118,31.1009 C67.855,31.7404 67.722,32.4256 67.7259124,33.1169 Z" id="Path" fill="url(#linearGradient-14)"></path>
                <path d="M67.726,61.2504 C67.726,62.2897 68.034,63.3057 68.611,64.1699 C69.189,65.0341 70.009,65.7076 70.968,66.1054 C71.928,66.5031 72.984,66.6072 74.002,66.4044 C75.021,66.2017 75.957,65.7012 76.691,64.9662 C77.425,64.2313 77.926,63.2949 78.128,62.2756 C78.331,61.2562 78.227,60.1996 77.829,59.2394 C77.432,58.2791 76.759,57.4584 75.895,56.881 C75.032,56.3036 74.016,55.9954 72.978,55.9954 C71.585,55.9954 70.249,56.549 69.265,57.5345 C68.28,58.52 67.726,59.8567 67.726,61.2504 Z" id="Path" fill="url(#linearGradient-15)"></path>
                <path d="M69.52,89.192 C69.52,90.231 69.828,91.247 70.405,92.111 C70.982,92.975 71.802,93.649 72.761,94.046 C73.721,94.444 74.777,94.548 75.795,94.346 C76.814,94.143 77.75,93.642 78.484,92.907 C79.219,92.172 79.719,91.236 79.921,90.217 C80.124,89.197 80.02,88.1407 79.622,87.1805 C79.225,86.2203 78.552,85.3996 77.688,84.8222 C76.825,84.2447 75.81,83.9365 74.771,83.9365 C73.381,83.9449 72.05,84.5013 71.067,85.4849 C70.084,86.4686 69.528,87.8004 69.52,89.192 Z" id="Path" fill="url(#linearGradient-16)"></path>
                <path d="M34.426,16.3027 C34.777,16.8366 35.305,17.1035 36.008,17.1035 C36.454,17.1035 36.856,16.931 37.214,16.5859 C37.585,16.2311 37.771,15.8161 37.771,15.3408 L37.771,15.3311 C37.266,15.777 36.678,16 36.008,16 C35.272,16 34.644,15.7396 34.123,15.2188 C33.602,14.6979 33.342,14.0697 33.342,13.334 C33.342,12.5983 33.602,11.9701 34.123,11.4492 C34.644,10.9284 35.272,10.668 36.008,10.668 C36.74,10.668 37.367,10.9268 37.888,11.4443 C38.409,11.9619 38.671,12.5885 38.674,13.3242 L38.674,15.3408 C38.674,16.0602 38.394,16.6885 37.834,17.2256 C37.294,17.7464 36.685,18.0068 36.008,18.0068 C34.963,18.0068 34.182,17.6032 33.664,16.7959 C33.586,16.6755 33.57,16.5469 33.615,16.4102 C33.661,16.2734 33.752,16.1807 33.889,16.1318 L33.903,16.127 C34.121,16.0521 34.296,16.1107 34.426,16.3027 Z M37.771,13.3047 C37.764,12.8229 37.588,12.4144 37.243,12.0791 C36.901,11.7406 36.49,11.5713 36.008,11.5713 C35.52,11.5713 35.103,11.7438 34.758,12.0889 C34.416,12.4339 34.245,12.849 34.245,13.334 C34.245,13.8223 34.416,14.2389 34.758,14.584 C35.103,14.9258 35.52,15.0967 36.008,15.0967 C36.496,15.0967 36.911,14.9258 37.253,14.584 C37.598,14.2389 37.771,13.8223 37.771,13.334 L37.771,13.3047 Z M42.657,10.668 C42.101,10.668 41.627,10.8633 41.236,11.2539 C40.852,11.6445 40.657,12.1182 40.65,12.6748 L40.65,15.5557 C40.65,15.6794 40.694,15.7835 40.782,15.8682 C40.87,15.9561 40.974,16 41.095,16 L41.109,16 C41.23,16 41.334,15.9561 41.422,15.8682 C41.51,15.7835 41.554,15.6794 41.554,15.5557 L41.554,12.6748 C41.557,12.3688 41.664,12.1084 41.876,11.8936 C42.091,11.6787 42.351,11.5713 42.657,11.5713 L42.936,11.5713 C43.059,11.5713 43.165,11.5273 43.253,11.4395 C43.338,11.3548 43.38,11.2507 43.38,11.127 L43.38,11.1172 C43.38,10.9935 43.338,10.8877 43.253,10.7998 C43.165,10.7119 43.059,10.668 42.936,10.668 L42.657,10.668 Z M47.441,11.5811 C47.93,11.5811 48.345,11.7536 48.687,12.0986 C49.032,12.4437 49.204,12.8604 49.204,13.3486 C49.204,13.8337 49.032,14.2487 48.687,14.5938 C48.345,14.9388 47.93,15.1113 47.441,15.1113 C46.953,15.1113 46.536,14.9388 46.191,14.5938 C45.85,14.2487 45.679,13.8337 45.679,13.3486 C45.679,12.8604 45.85,12.4437 46.191,12.0986 C46.536,11.7536 46.953,11.5811 47.441,11.5811 Z M47.441,10.668 C46.706,10.668 46.077,10.9284 45.557,11.4492 C45.036,11.9701 44.775,12.5983 44.775,13.334 C44.775,14.0697 45.036,14.6979 45.557,15.2188 C46.077,15.7396 46.706,16 47.441,16 C48.177,16 48.805,15.7396 49.326,15.2188 C49.847,14.6979 50.107,14.0697 50.107,13.334 C50.107,12.5983 49.847,11.9701 49.326,11.4492 C48.805,10.9284 48.177,10.668 47.441,10.668 Z M54.457,11.5811 C54.945,11.5811 55.36,11.7536 55.702,12.0986 C56.047,12.4437 56.22,12.8604 56.22,13.3486 C56.22,13.8337 56.047,14.2487 55.702,14.5938 C55.36,14.9388 54.945,15.1113 54.457,15.1113 C53.969,15.1113 53.552,14.9388 53.207,14.5938 C52.865,14.2487 52.694,13.8337 52.694,13.3486 C52.694,12.8604 52.865,12.4437 53.207,12.0986 C53.552,11.7536 53.969,11.5811 54.457,11.5811 Z M54.457,10.668 C53.721,10.668 53.093,10.9284 52.572,11.4492 C52.051,11.9701 51.791,12.5983 51.791,13.334 C51.791,14.0697 52.051,14.6979 52.572,15.2188 C53.093,15.7396 53.721,16 54.457,16 C55.193,16 55.821,15.7396 56.342,15.2188 C56.863,14.6979 57.123,14.0697 57.123,13.334 C57.123,12.5983 56.863,11.9701 56.342,11.4492 C55.821,10.9284 55.193,10.668 54.457,10.668 Z M59.437,10.9414 C60.218,12.7611 60.761,14.029 61.067,14.7451 C61.067,14.7419 61.074,14.7549 61.087,14.7842 C61.106,14.833 61.129,14.833 61.155,14.7842 L61.165,14.7549 L62.801,10.9414 C62.879,10.7591 63.016,10.668 63.211,10.668 L63.221,10.668 C63.38,10.668 63.504,10.7347 63.592,10.8682 C63.68,11.0016 63.693,11.1416 63.631,11.2881 L61.814,15.5264 C61.691,15.8421 61.46,16 61.121,16 C60.779,16 60.547,15.8421 60.423,15.5264 L58.606,11.2881 C58.545,11.1416 58.558,11.0016 58.646,10.8682 C58.733,10.7347 58.857,10.668 59.017,10.668 L59.031,10.668 C59.227,10.668 59.362,10.7591 59.437,10.9414 Z M67.272,10.668 C66.716,10.668 66.242,10.8633 65.852,11.2539 C65.467,11.6445 65.272,12.1182 65.266,12.6748 L65.266,15.5557 C65.266,15.6794 65.31,15.7835 65.397,15.8682 C65.485,15.9561 65.59,16 65.71,16 L65.725,16 C65.845,16 65.949,15.9561 66.037,15.8682 C66.125,15.7835 66.169,15.6794 66.169,15.5557 L66.169,12.6748 C66.172,12.3688 66.28,12.1084 66.491,11.8936 C66.706,11.6787 66.966,11.5713 67.272,11.5713 L67.551,11.5713 C67.674,11.5713 67.78,11.5273 67.868,11.4395 C67.953,11.3548 67.995,11.2507 67.995,11.127 L67.995,11.1172 C67.995,10.9935 67.953,10.8877 67.868,10.7998 C67.78,10.7119 67.674,10.668 67.551,10.668 L67.272,10.668 Z" id="Shape" fill="#EFEDE9"></path>
            </g>
            <polyline id="Path" stroke="#FFFFFF" stroke-width="0.5" points="143.213 86.1815 149.693 137.165 141.548 695.107"></polyline>
            <polyline id="Path" stroke="#FFFFFF" stroke-width="0.45" points="144.815 59.0067 157.072 137.164 151.219 693.003"></polyline>
            <polyline id="Path" stroke="#FFFFFF" stroke-width="0.4" points="145.231 33.4387 163.397 137.164 161.497 693.208"></polyline>
            <polyline id="Path" stroke="#FFFFFF" stroke-width="0.3" points="188.17 33.1169 169.722 136.109 171.487 693.004"></polyline>
            <polyline id="Path" stroke="#FFFFFF" stroke-width="0.3" points="187.978 58.5973 176.047 136.109 181.446 692.799"></polyline>
            <polyline id="Path" stroke="#FFFFFF" stroke-width="0.3" points="189.771 88.6782 183.427 137.164 191.436 694.903"></polyline>
            <path d="M147.92,33.1169 C147.92,33.6936 147.75,34.2574 147.429,34.7369 C147.109,35.2164 146.654,35.5902 146.122,35.8109 C145.589,36.0315 145.003,36.0893 144.438,35.9768 C143.873,35.8643 143.354,35.5866 142.946,35.1788 C142.539,34.771 142.261,34.2514 142.149,33.6858 C142.036,33.1202 142.094,32.5339 142.315,32.0011 C142.535,31.4683 142.909,31.0129 143.388,30.6925 C143.867,30.3721 144.43,30.201 145.007,30.201 C145.779,30.201 146.521,30.5083 147.067,31.0551 C147.613,31.6019 147.92,32.3436 147.92,33.1169 Z" id="Path" fill="url(#linearGradient-17)" fill-rule="nonzero"></path>
            <path d="M145.007,64.0701 C146.616,64.0701 147.921,62.7646 147.921,61.1542 C147.921,59.5438 146.616,58.2383 145.007,58.2383 C143.397,58.2383 142.093,59.5438 142.093,61.1542 C142.093,62.7646 143.397,64.0701 145.007,64.0701 Z" id="Path" fill="url(#linearGradient-18)" fill-rule="nonzero"></path>
            <path d="M146.127,89.192 C146.127,89.768 145.956,90.332 145.636,90.812 C145.316,91.291 144.861,91.665 144.329,91.886 C143.796,92.106 143.21,92.164 142.645,92.052 C142.08,91.939 141.561,91.661 141.153,91.253 C140.746,90.846 140.468,90.326 140.356,89.76 C140.243,89.195 140.301,88.6086 140.521,88.0758 C140.742,87.543 141.115,87.0876 141.595,86.7672 C142.074,86.4468 142.637,86.2758 143.214,86.2758 C143.986,86.2758 144.727,86.583 145.274,87.1298 C145.82,87.6766 146.127,88.4183 146.127,89.192 Z" id="Path" fill="url(#linearGradient-19)" fill-rule="nonzero"></path>
            <path d="M185.064,33.1169 C185.064,33.6936 185.235,34.2574 185.555,34.7369 C185.875,35.2164 186.33,35.5902 186.863,35.8109 C187.395,36.0315 187.981,36.0893 188.546,35.9768 C189.111,35.8643 189.631,35.5866 190.038,35.1788 C190.446,34.771 190.723,34.2514 190.836,33.6858 C190.948,33.1202 190.89,32.5339 190.67,32.0011 C190.449,31.4683 190.076,31.0129 189.597,30.6925 C189.117,30.3721 188.554,30.201 187.978,30.201 C187.205,30.201 186.464,30.5083 185.917,31.0551 C185.371,31.6019 185.064,32.3436 185.064,33.1169 Z" id="Path" fill="url(#linearGradient-20)" fill-rule="nonzero"></path>
            <path d="M185.064,61.2505 C185.064,61.8272 185.235,62.3909 185.555,62.8704 C185.875,63.3499 186.33,63.7237 186.863,63.9444 C187.395,64.1651 187.981,64.2228 188.546,64.1103 C189.111,63.9978 189.631,63.7201 190.038,63.3123 C190.446,62.9045 190.723,62.3849 190.836,61.8193 C190.948,61.2537 190.89,60.6674 190.67,60.1346 C190.449,59.6018 190.076,59.1464 189.597,58.826 C189.117,58.5056 188.554,58.3346 187.978,58.3346 C187.205,58.3346 186.464,58.6418 185.917,59.1886 C185.371,59.7355 185.064,60.4771 185.064,61.2505 Z" id="Path" fill="url(#linearGradient-21)" fill-rule="nonzero"></path>
            <path d="M186.857,89.192 C186.857,89.768 187.028,90.332 187.348,90.812 C187.668,91.291 188.123,91.665 188.656,91.886 C189.188,92.106 189.774,92.164 190.339,92.052 C190.905,91.939 191.424,91.661 191.831,91.253 C192.239,90.846 192.516,90.326 192.629,89.76 C192.741,89.195 192.684,88.6086 192.463,88.0758 C192.242,87.543 191.869,87.0876 191.39,86.7672 C190.911,86.4468 190.347,86.2758 189.771,86.2758 C188.998,86.2758 188.257,86.583 187.711,87.1298 C187.164,87.6766 186.857,88.4183 186.857,89.192 Z" id="Path" fill="url(#linearGradient-22)" fill-rule="nonzero"></path>
            <path d="M145.199,692.597 C145.199,693.319 144.985,694.026 144.584,694.626 C144.182,695.227 143.612,695.695 142.945,695.972 C142.278,696.248 141.544,696.32 140.836,696.179 C140.128,696.039 139.478,695.691 138.967,695.18 C138.457,694.669 138.109,694.018 137.968,693.309 C137.827,692.601 137.9,691.866 138.176,691.199 C138.452,690.532 138.92,689.961 139.52,689.56 C140.121,689.158 140.826,688.944 141.548,688.944 C142.517,688.944 143.445,689.329 144.13,690.014 C144.814,690.699 145.199,691.628 145.199,692.597 Z" id="Path" fill="#BBA693" fill-rule="nonzero"></path>
            <path d="M151.539,696.25 C153.555,696.25 155.189,694.614 155.189,692.597 C155.189,690.58 153.555,688.944 151.539,688.944 C149.523,688.944 147.889,690.58 147.889,692.597 C147.889,694.614 149.523,696.25 151.539,696.25 Z" id="Path" fill="#BBA693" fill-rule="nonzero"></path>
            <path d="M165.147,692.597 C165.147,693.319 164.933,694.026 164.532,694.626 C164.131,695.227 163.561,695.695 162.894,695.972 C162.227,696.248 161.493,696.32 160.785,696.179 C160.077,696.039 159.426,695.691 158.916,695.18 C158.405,694.669 158.058,694.018 157.917,693.309 C157.776,692.601 157.848,691.866 158.125,691.199 C158.401,690.532 158.869,689.961 159.469,689.56 C160.069,689.158 160.775,688.944 161.497,688.944 C162.465,688.944 163.394,689.329 164.078,690.014 C164.763,690.699 165.147,691.628 165.147,692.597 Z" id="Path" fill="#BBA693" fill-rule="nonzero"></path>
            <path d="M171.487,696.25 C173.503,696.25 175.138,694.614 175.138,692.597 C175.138,690.58 173.503,688.944 171.487,688.944 C169.471,688.944 167.837,690.58 167.837,692.597 C167.837,694.614 169.471,696.25 171.487,696.25 Z" id="Path" fill="#BBA693" fill-rule="nonzero"></path>
            <path d="M185.096,692.597 C185.096,693.319 184.882,694.026 184.481,694.626 C184.08,695.227 183.51,695.695 182.843,695.972 C182.176,696.248 181.442,696.32 180.734,696.179 C180.025,696.039 179.375,695.691 178.864,695.18 C178.354,694.669 178.006,694.018 177.866,693.309 C177.725,692.601 177.797,691.866 178.073,691.199 C178.35,690.532 178.817,689.961 179.418,689.56 C180.018,689.158 180.724,688.944 181.446,688.944 C182.414,688.944 183.342,689.329 184.027,690.014 C184.711,690.699 185.096,691.628 185.096,692.597 Z" id="Path" fill="#BBA693" fill-rule="nonzero"></path>
            <path d="M191.436,696.25 C193.452,696.25 195.086,694.614 195.086,692.597 C195.086,690.58 193.452,688.944 191.436,688.944 C189.42,688.944 187.786,690.58 187.786,692.597 C187.786,694.614 189.42,696.25 191.436,696.25 Z" id="Path" fill="#BBA693" fill-rule="nonzero"></path>
            <path d="M187.049343,137.288 C187.049343,137.645 186.907,137.987 186.655,138.239 C186.403,138.492 186.061,138.633 185.704,138.633 L147.28,138.633 C147.101,138.638 146.922,138.606 146.756,138.54 C146.589,138.475 146.437,138.376 146.308,138.251 C146.18,138.125 146.078,137.976 146.009,137.81 C145.939,137.645 145.903,137.467 145.903,137.288 C145.903,136.922 146.048,136.572 146.306,136.313 C146.565,136.055 146.915,135.91 147.28,135.91 L185.704,135.91 C185.884,135.91 186.061,135.946 186.226,136.015 C186.392,136.085 186.541,136.187 186.667,136.315 C186.792,136.444 186.89,136.596 186.956,136.763 C187.022,136.93 187.053,137.108 187.049343,137.288 Z" id="Path" fill="#E8E3D8" fill-rule="nonzero"></path>
        </g>
    </g>
</svg>