<?xml version="1.0" encoding="UTF-8"?>
<svg width="333px" height="916px" viewBox="0 0 333 916" version="1.1" xmlns="http://www.w3.org/2000/svg" xmlns:xlink="http://www.w3.org/1999/xlink">
    <!-- Generator: Sketch 64 (93537) - https://sketch.com -->
    <title>guitar</title>
    <desc>Created with Sketch.</desc>
    <defs>
        <linearGradient x1="35.7681969%" y1="18.4859807%" x2="50.0361436%" y2="148.630584%" id="linearGradient-1">
            <stop stop-color="#5F3114" offset="0%"></stop>
            <stop stop-color="#3D200D" offset="100%"></stop>
        </linearGradient>
        <linearGradient x1="49.9998477%" y1="0%" x2="49.9998477%" y2="100%" id="linearGradient-2">
            <stop stop-color="#290F0F" offset="0%"></stop>
            <stop stop-color="#220D0D" offset="100%"></stop>
        </linearGradient>
        <linearGradient x1="54.3383315%" y1="0%" x2="54.3383315%" y2="102.399438%" id="linearGradient-3">
            <stop stop-color="#160808" offset="0%"></stop>
            <stop stop-color="#0E0505" offset="100%"></stop>
        </linearGradient>
        <linearGradient x1="50%" y1="0%" x2="50%" y2="100%" id="linearGradient-4">
            <stop stop-color="#CBC9C6" offset="0%"></stop>
            <stop stop-color="#737270" offset="100%"></stop>
        </linearGradient>
        <linearGradient x1="50%" y1="0%" x2="50%" y2="100%" id="linearGradient-5">
            <stop stop-color="#CBC9C6" offset="0%"></stop>
            <stop stop-color="#737270" offset="100%"></stop>
        </linearGradient>
        <linearGradient x1="45.1015819%" y1="18.3705495%" x2="58.8735901%" y2="144.522344%" id="linearGradient-6">
            <stop stop-color="#5F3114" offset="0%"></stop>
            <stop stop-color="#3D200D" offset="100%"></stop>
        </linearGradient>
        <linearGradient x1="50%" y1="0%" x2="50%" y2="100%" id="linearGradient-7">
            <stop stop-color="#EFEDE9" offset="0%"></stop>
            <stop stop-color="#696967" offset="100%"></stop>
        </linearGradient>
        <linearGradient x1="50%" y1="0%" x2="50%" y2="100%" id="linearGradient-8">
            <stop stop-color="#EFEDE9" offset="0%"></stop>
            <stop stop-color="#696967" offset="100%"></stop>
        </linearGradient>
        <linearGradient x1="49.9955283%" y1="-3.37214884e-05%" x2="49.9955283%" y2="100.000068%" id="linearGradient-9">
            <stop stop-color="#CBC9C6" offset="0%"></stop>
            <stop stop-color="#999894" offset="100%"></stop>
        </linearGradient>
        <linearGradient x1="49.9959454%" y1="0%" x2="49.9959454%" y2="100.000068%" id="linearGradient-10">
            <stop stop-color="#CBC9C6" offset="0%"></stop>
            <stop stop-color="#999894" offset="100%"></stop>
        </linearGradient>
        <linearGradient x1="49.9959454%" y1="0%" x2="49.9959454%" y2="100.005275%" id="linearGradient-11">
            <stop stop-color="#CBC9C6" offset="0%"></stop>
            <stop stop-color="#999894" offset="100%"></stop>
        </linearGradient>
        <linearGradient x1="49.9949508%" y1="-3.37214884e-05%" x2="49.9949508%" y2="100.000068%" id="linearGradient-12">
            <stop stop-color="#CBC9C6" offset="0%"></stop>
            <stop stop-color="#999894" offset="100%"></stop>
        </linearGradient>
        <linearGradient x1="49.9977041%" y1="0%" x2="49.9977041%" y2="100.000068%" id="linearGradient-13">
            <stop stop-color="#CBC9C6" offset="0%"></stop>
            <stop stop-color="#999894" offset="100%"></stop>
        </linearGradient>
        <linearGradient x1="50.0040546%" y1="0%" x2="50.0040546%" y2="100.005275%" id="linearGradient-14">
            <stop stop-color="#CBC9C6" offset="0%"></stop>
            <stop stop-color="#999894" offset="100%"></stop>
        </linearGradient>
        <linearGradient x1="49.9987294%" y1="0%" x2="49.9987294%" y2="99.9998064%" id="linearGradient-15">
            <stop stop-color="#EFEDE9" offset="0%"></stop>
            <stop stop-color="#999895" offset="100%"></stop>
        </linearGradient>
        <linearGradient x1="50%" y1="0%" x2="50%" y2="100%" id="linearGradient-16">
            <stop stop-color="#EFEDE9" offset="0%"></stop>
            <stop stop-color="#999895" offset="100%"></stop>
        </linearGradient>
        <linearGradient x1="49.9987294%" y1="0%" x2="49.9987294%" y2="100.006336%" id="linearGradient-17">
            <stop stop-color="#EFEDE9" offset="0%"></stop>
            <stop stop-color="#999895" offset="100%"></stop>
        </linearGradient>
        <linearGradient x1="50.0012706%" y1="0%" x2="50.0012706%" y2="99.9998064%" id="linearGradient-18">
            <stop stop-color="#EFEDE9" offset="0%"></stop>
            <stop stop-color="#999895" offset="100%"></stop>
        </linearGradient>
        <linearGradient x1="50.0012706%" y1="0%" x2="50.0012706%" y2="99.9994263%" id="linearGradient-19">
            <stop stop-color="#EFEDE9" offset="0%"></stop>
            <stop stop-color="#999895" offset="100%"></stop>
        </linearGradient>
        <linearGradient x1="49.9974577%" y1="0%" x2="49.9974577%" y2="100.006336%" id="linearGradient-20">
            <stop stop-color="#EFEDE9" offset="0%"></stop>
            <stop stop-color="#999895" offset="100%"></stop>
        </linearGradient>
    </defs>
    <g id="Page-1" stroke="none" stroke-width="1" fill="none" fill-rule="evenodd">
        <g id="guitar">
            <g id="Group" transform="translate(0.000000, 497.000000)">
                <path d="M295.598,203.481 C273.44,170.028 269.533,151.123 288.201,105.815 C306.869,60.506 288.237,33.43 261.436,18.274 C233.514,2.509 187.786,0.683 166.492,0.683 C145.199,0.683 98.769,2.509 70.8478,18.274 C44.0469,33.43 26.0195,60.506 44.7834,105.815 C63.5472,151.123 59.5447,169.9 37.3867,203.481 C10.8739,243.438 -8.6904,288.33 3.9255,338.509 C16.9578,390.418 64.764,419 166.492,419 C268.22,419 316.027,390.418 329.091,338.509 C341.675,288.33 322.111,243.438 295.598,203.481 Z" id="Path" fill="url(#linearGradient-1)" fill-rule="nonzero"></path>
                <path d="M166.492,4.949 C142.712,4.949 98.916,7.151 72.7681,21.914 C42.1757,39.171 34.2275,66.205 49.1506,102.272 C69.1671,150.836 64.463,171.815 41.0727,206.976 C7.9174,256.835 -2.2693,297.338 8.0471,338.293 C21.186,390.451 71.5353,414.733 166.492,414.733 C261.448,414.733 311.798,390.451 324.936,338.293 C335.253,297.338 324.936,256.835 291.911,206.976 C268.553,171.815 263.817,150.706 283.833,102.272 C298.756,66.205 290.808,39.171 260.216,21.914 C234.068,7.151 190.271,4.949 166.492,4.949 Z" id="Path" stroke="#FFF7E8" stroke-width="0.5" opacity="0.6"></path>
            </g>
            <path d="M249.489,755.466 C248.712,754.041 247.424,752.964 245.885,752.453 C244.345,751.941 242.669,752.033 241.195,752.71 C233.465,754.983 225.323,755.487 217.372,754.184 C208.215,752.262 207.574,747.584 204.788,747.584 L128.196,747.584 C125.41,747.584 124.77,752.262 115.644,754.184 C107.682,755.488 99.53,754.984 91.789,752.71 C90.315,752.033 88.639,751.941 87.1,752.453 C85.56,752.964 84.272,754.041 83.496,755.466 C81.35,758.446 80.294,773.794 91.789,773.154 C102.204,772.731 112.621,773.953 122.656,776.774 L210.328,776.774 C220.363,773.953 230.78,772.731 241.195,773.154 C252.691,773.794 251.634,758.446 249.489,755.466 Z" id="Path" fill="url(#linearGradient-2)" fill-rule="nonzero"></path>
            <path d="M106.999,764.054 C106.999,764.637 106.826,765.207 106.502,765.691 C106.178,766.176 105.718,766.554 105.18,766.777 C104.642,767 104.049,767.058 103.478,766.945 C102.907,766.831 102.382,766.55 101.97,766.138 C101.558,765.726 101.277,765.2 101.163,764.629 C101.05,764.057 101.108,763.464 101.331,762.925 C101.554,762.387 101.932,761.926 102.416,761.602 C102.901,761.278 103.47,761.106 104.053,761.106 C104.834,761.106 105.583,761.416 106.136,761.969 C106.688,762.522 106.999,763.272 106.999,764.054 Z" id="Path" fill="#9E5C31" fill-rule="nonzero"></path>
            <path d="M231.877,764.054 C231.877,764.637 231.705,765.207 231.381,765.691 C231.057,766.176 230.597,766.554 230.059,766.777 C229.521,767 228.928,767.058 228.357,766.945 C227.785,766.831 227.261,766.55 226.849,766.138 C226.437,765.726 226.156,765.2 226.042,764.629 C225.929,764.057 225.987,763.464 226.21,762.925 C226.433,762.387 226.811,761.926 227.295,761.602 C227.779,761.278 228.349,761.106 228.932,761.106 C229.713,761.106 230.462,761.416 231.015,761.969 C231.567,762.522 231.877,763.272 231.877,764.054 Z" id="Path" fill="#9E5C31" fill-rule="nonzero"></path>
            <path d="M203.283,752.807 C203.306,753.013 203.287,753.222 203.228,753.421 C203.169,753.62 203.071,753.805 202.94,753.966 C202.809,754.127 202.647,754.26 202.464,754.358 C202.281,754.456 202.081,754.517 201.875,754.537 L130.565,762.483 C130.154,762.529 129.741,762.409 129.417,762.151 C129.093,761.893 128.885,761.517 128.836,761.106 C128.791,760.685 128.914,760.264 129.178,759.934 C129.442,759.604 129.826,759.392 130.245,759.343 L201.554,751.397 C201.966,751.352 202.379,751.471 202.702,751.729 C203.026,751.987 203.235,752.363 203.283,752.775 L203.283,752.807 Z" id="Path" fill="#F7E7C8" fill-rule="nonzero"></path>
            <path d="M231.703,626.7 C240.103,590.664 217.72,554.636 181.708,546.23 C145.697,537.824 109.695,560.223 101.295,596.26 C92.895,632.296 115.278,668.324 151.29,676.729 C187.301,685.135 223.303,662.736 231.703,626.7 Z" id="Path" fill="#462208" fill-rule="nonzero"></path>
            <path d="M166.492,665.747 C196.432,665.747 220.702,641.459 220.702,611.498 C220.702,581.538 196.432,557.25 166.492,557.25 C136.553,557.25 112.282,581.538 112.282,611.498 C112.282,641.459 136.553,665.747 166.492,665.747 Z" id="Path" stroke="#B4764F" stroke-width="1.5" opacity="0.2"></path>
            <path d="M247.503,596.63 C228.547,557.923 208.054,542.158 190.347,533.538 L190.347,688.24 C205.988,701.789 222.548,699.194 230.447,696.755 C233.676,695.759 236.524,693.903 239.205,691.846 L241.316,690.227 C246.909,685.937 251.339,680.314 254.199,673.871 C255.454,671.046 256.45,668.127 256.923,665.072 C258.633,654.051 261.28,624.76 247.503,596.63 Z" id="Path" fill="url(#linearGradient-3)" fill-rule="nonzero"></path>
            <polygon id="Path" fill="#543121" fill-rule="nonzero" points="191 577 141 577 147.155 138 184.845 138"></polygon>
            <path d="M166.492,655.397 C190.72,655.397 210.36,635.743 210.36,611.498 C210.36,587.254 190.72,567.6 166.492,567.6 C142.265,567.6 122.624,587.254 122.624,611.498 C122.624,635.743 142.265,655.397 166.492,655.397 Z" id="Path" fill="#51301B" fill-rule="nonzero"></path>
            <path d="M186.679,235.222 C186.679,235.362 186.542,235.496 186.298,235.595 C186.054,235.694 185.723,235.75 185.378,235.75 L146.98,235.75 C146.635,235.75 146.304,235.694 146.06,235.595 C145.816,235.496 145.679,235.362 145.679,235.222 C145.687,235.083 145.827,234.951 146.069,234.853 C146.311,234.754 146.638,234.698 146.98,234.694 L185.378,234.694 C185.721,234.698 186.047,234.754 186.289,234.853 C186.531,234.951 186.671,235.083 186.679,235.222 Z" id="Path" fill="#E8E3D8" fill-rule="nonzero"></path>
            <path d="M186,203.528 C186,203.667 185.866,203.802 185.628,203.901 C185.39,204 185.067,204.055 184.731,204.055 L147.269,204.055 C146.933,204.055 146.61,204 146.372,203.901 C146.134,203.802 146,203.667 146,203.528 C146.008,203.389 146.144,203.256 146.38,203.158 C146.617,203.06 146.935,203.003 147.269,203 L184.731,203 C185.065,203.003 185.383,203.06 185.62,203.158 C185.856,203.256 185.992,203.389 186,203.528 Z" id="Path" fill="#E8E3D8" fill-rule="nonzero"></path>
            <path d="M185.5,171.528 C185.5,171.667 185.37,171.802 185.138,171.901 C184.905,172 184.591,172.055 184.262,172.055 L147.738,172.055 C147.409,172.055 147.095,172 146.862,171.901 C146.63,171.802 146.5,171.667 146.5,171.528 C146.508,171.389 146.641,171.256 146.871,171.158 C147.101,171.06 147.412,171.003 147.738,171 L184.262,171 C184.588,171.003 184.899,171.06 185.129,171.158 C185.359,171.256 185.492,171.389 185.5,171.528 Z" id="Path" fill="#E8E3D8" fill-rule="nonzero"></path>
            <path d="M186.908,264.701 C186.908,264.841 186.774,264.975 186.538,265.074 C186.301,265.173 185.979,265.229 185.644,265.229 L146.263,265.229 C145.931,265.226 145.614,265.169 145.379,265.071 C145.143,264.972 145.008,264.84 145,264.701 C145,264.561 145.133,264.427 145.37,264.328 C145.607,264.229 145.928,264.174 146.263,264.174 L185.737,264.174 C186.072,264.174 186.393,264.229 186.63,264.328 C186.867,264.427 187,264.561 187,264.701 L186.908,264.701 Z" id="Path" fill="#E8E3D8" fill-rule="nonzero"></path>
            <path d="M187.624,294.149 C187.624,294.288 187.488,294.423 187.245,294.522 C187.002,294.621 186.673,294.676 186.33,294.676 L146.012,294.676 C145.669,294.676 145.34,294.621 145.097,294.522 C144.855,294.423 144.719,294.288 144.719,294.149 C144.719,294.009 144.855,293.874 145.097,293.775 C145.34,293.677 145.669,293.621 146.012,293.621 L186.425,293.621 C186.768,293.621 187.097,293.677 187.34,293.775 C187.582,293.874 187.719,294.009 187.719,294.149 L187.624,294.149 Z" id="Path" fill="#E8E3D8" fill-rule="nonzero"></path>
            <path d="M187.834,320.456 C187.834,320.595 187.698,320.73 187.456,320.829 C187.214,320.928 186.886,320.983 186.544,320.983 L145.625,320.983 C145.283,320.983 144.954,320.928 144.712,320.829 C144.47,320.73 144.334,320.595 144.334,320.456 C144.334,320.316 144.47,320.181 144.712,320.082 C144.954,319.984 145.283,319.928 145.625,319.928 L186.544,319.928 C186.886,319.928 187.214,319.984 187.456,320.082 C187.698,320.181 187.834,320.316 187.834,320.456 Z" id="Path" fill="#E8E3D8" fill-rule="nonzero"></path>
            <path d="M187.918,343.719 C187.918,343.858 187.783,343.993 187.543,344.092 C187.303,344.191 186.978,344.246 186.639,344.246 L145.197,344.246 C144.858,344.246 144.533,344.191 144.293,344.092 C144.053,343.993 143.918,343.858 143.918,343.719 C143.926,343.58 144.063,343.447 144.301,343.349 C144.54,343.251 144.861,343.194 145.197,343.191 L186.639,343.191 C186.975,343.194 187.296,343.251 187.534,343.349 C187.773,343.447 187.91,343.58 187.918,343.719 Z" id="Path" fill="#E8E3D8" fill-rule="nonzero"></path>
            <path d="M188.194,368.231 C188.194,368.371 188.059,368.505 187.819,368.604 C187.578,368.703 187.252,368.759 186.913,368.759 L144.975,368.759 C144.635,368.759 144.309,368.703 144.069,368.604 C143.829,368.505 143.694,368.371 143.694,368.231 C143.694,368.091 143.829,367.957 144.069,367.858 C144.309,367.759 144.635,367.704 144.975,367.704 L186.913,367.704 C187.252,367.704 187.578,367.759 187.819,367.858 C188.059,367.957 188.194,368.091 188.194,368.231 Z" id="Path" fill="#E8E3D8" fill-rule="nonzero"></path>
            <path d="M188.778,389.443 C188.778,389.583 188.642,389.718 188.401,389.816 C188.16,389.915 187.832,389.971 187.491,389.971 L144.564,389.971 C144.223,389.971 143.896,389.915 143.654,389.816 C143.413,389.718 143.278,389.583 143.278,389.443 C143.286,389.305 143.424,389.172 143.663,389.074 C143.903,388.976 144.226,388.919 144.564,388.916 L187.491,388.916 C187.83,388.919 188.152,388.976 188.392,389.074 C188.632,389.172 188.77,389.305 188.778,389.443 Z" id="Path" fill="#E8E3D8" fill-rule="nonzero"></path>
            <path d="M189,411.233 C189,411.373 188.867,411.507 188.631,411.606 C188.395,411.705 188.075,411.76 187.741,411.76 L144.259,411.76 C143.925,411.76 143.605,411.705 143.369,411.606 C143.133,411.507 143,411.373 143,411.233 C143.008,411.094 143.143,410.961 143.377,410.863 C143.612,410.765 143.928,410.708 144.259,410.705 L187.741,410.705 C188.072,410.708 188.388,410.765 188.623,410.863 C188.857,410.961 188.992,411.094 189,411.233 Z" id="Path" fill="#E8E3D8" fill-rule="nonzero"></path>
            <path d="M189.5,431.323 C189.5,431.463 189.367,431.597 189.129,431.696 C188.892,431.795 188.57,431.851 188.234,431.851 L143.766,431.851 C143.433,431.848 143.115,431.791 142.88,431.693 C142.644,431.595 142.508,431.462 142.5,431.323 C142.5,431.183 142.633,431.049 142.871,430.95 C143.108,430.851 143.43,430.796 143.766,430.796 L188.234,430.796 C188.57,430.796 188.892,430.851 189.129,430.95 C189.367,431.049 189.5,431.183 189.5,431.323 Z" id="Path" fill="#E8E3D8" fill-rule="nonzero"></path>
            <path d="M189.5,449.267 C189.5,449.407 189.367,449.541 189.132,449.64 C188.896,449.739 188.576,449.794 188.242,449.794 L143.789,449.794 C143.621,449.796 143.454,449.783 143.298,449.758 C143.142,449.732 142.999,449.693 142.879,449.644 C142.759,449.595 142.664,449.536 142.599,449.472 C142.533,449.407 142.5,449.337 142.5,449.267 C142.5,449.196 142.533,449.127 142.599,449.062 C142.664,448.997 142.759,448.938 142.879,448.889 C142.999,448.84 143.142,448.801 143.298,448.776 C143.454,448.75 143.621,448.738 143.789,448.739 L188.242,448.739 C188.576,448.739 188.896,448.795 189.132,448.894 C189.367,448.993 189.5,449.127 189.5,449.267 Z" id="Path" fill="#E8E3D8" fill-rule="nonzero"></path>
            <path d="M190,467.435 C189.992,467.574 189.855,467.707 189.618,467.805 C189.381,467.903 189.062,467.96 188.727,467.963 L143.273,467.963 C142.938,467.96 142.619,467.903 142.382,467.805 C142.145,467.707 142.008,467.574 142,467.435 C142,467.295 142.134,467.161 142.373,467.062 C142.612,466.963 142.935,466.908 143.273,466.908 L188.727,466.908 C189.065,466.908 189.388,466.963 189.627,467.062 C189.866,467.161 190,467.295 190,467.435 Z" id="Path" fill="#E8E3D8" fill-rule="nonzero"></path>
            <path d="M190,485.517 C190,485.657 189.867,485.791 189.629,485.89 C189.392,485.989 189.069,486.045 188.734,486.045 L143.266,486.045 C142.931,486.045 142.608,485.989 142.371,485.89 C142.133,485.791 142,485.657 142,485.517 C142.008,485.378 142.144,485.246 142.38,485.148 C142.615,485.049 142.933,484.993 143.266,484.99 L188.734,484.99 C189.069,484.99 189.392,485.045 189.629,485.144 C189.867,485.243 190,485.377 190,485.517 Z" id="Path" fill="#E8E3D8" fill-rule="nonzero"></path>
            <path d="M189.969,499.959 C189.969,500.099 189.835,500.233 189.597,500.332 C189.359,500.431 189.035,500.486 188.698,500.486 L142.771,500.486 C142.434,500.486 142.11,500.431 141.872,500.332 C141.634,500.233 141.5,500.099 141.5,499.959 C141.5,499.819 141.634,499.685 141.872,499.586 C142.11,499.487 142.434,499.431 142.771,499.431 L188.729,499.431 C189.066,499.431 189.39,499.487 189.628,499.586 C189.866,499.685 190,499.819 190,499.959 L189.969,499.959 Z" id="Path" fill="#E8E3D8" fill-rule="nonzero"></path>
            <path d="M190.388,514.57 C190.38,514.709 190.243,514.841 190.004,514.94 C189.766,515.038 189.444,515.095 189.107,515.098 L142.67,515.098 C142.332,515.095 142.011,515.038 141.772,514.94 C141.534,514.841 141.396,514.709 141.388,514.57 C141.388,514.43 141.523,514.296 141.764,514.197 C142.004,514.098 142.33,514.043 142.67,514.043 L189.076,514.043 C189.416,514.043 189.742,514.098 189.982,514.197 C190.222,514.296 190.357,514.43 190.357,514.57 L190.388,514.57 Z" id="Path" fill="#E8E3D8" fill-rule="nonzero"></path>
            <path d="M190.5,530.207 C190.492,530.346 190.356,530.478 190.119,530.577 C189.882,530.675 189.564,530.731 189.229,530.735 L142.271,530.735 C141.936,530.731 141.618,530.675 141.381,530.577 C141.144,530.478 141.008,530.346 141,530.207 C141,530.067 141.134,529.933 141.372,529.834 C141.611,529.735 141.934,529.68 142.271,529.68 L189.198,529.68 C189.535,529.68 189.858,529.735 190.097,529.834 C190.335,529.933 190.469,530.067 190.469,530.207 L190.5,530.207 Z" id="Path" fill="#E8E3D8" fill-rule="nonzero"></path>
            <path d="M191,542.8 C191,542.94 190.867,543.074 190.631,543.173 C190.394,543.272 190.074,543.327 189.739,543.327 L142.261,543.327 C141.926,543.327 141.606,543.272 141.369,543.173 C141.133,543.074 141,542.94 141,542.8 C141,542.66 141.133,542.526 141.369,542.427 C141.606,542.328 141.926,542.272 142.261,542.272 L189.739,542.272 C190.074,542.272 190.394,542.328 190.631,542.427 C190.867,542.526 191,542.66 191,542.8 Z" id="Path" fill="#E8E3D8" fill-rule="nonzero"></path>
            <path d="M191.408,555.008 C191.408,555.148 191.272,555.282 191.03,555.381 C190.787,555.48 190.458,555.536 190.116,555.536 L142.201,555.536 C141.858,555.536 141.529,555.48 141.287,555.381 C141.044,555.282 140.908,555.148 140.908,555.008 C140.908,554.868 141.044,554.734 141.287,554.635 C141.529,554.536 141.858,554.48 142.201,554.48 L190.116,554.48 C190.458,554.48 190.787,554.536 191.03,554.635 C191.272,554.734 191.408,554.868 191.408,555.008 Z" id="Path" fill="#E8E3D8" fill-rule="nonzero"></path>
            <path d="M191.5,566.528 C191.5,566.667 191.364,566.802 191.121,566.901 C190.879,567 190.55,567.055 190.208,567.055 L142.292,567.055 C141.95,567.055 141.621,567 141.379,566.901 C141.136,566.802 141,566.667 141,566.528 C141,566.388 141.136,566.253 141.379,566.155 C141.621,566.056 141.95,566 142.292,566 L190.208,566 C190.55,566 190.879,566.056 191.121,566.155 C191.364,566.253 191.5,566.388 191.5,566.528 Z" id="Path" fill="#E8E3D8" fill-rule="nonzero"></path>
            <path d="M169.662,279.704 C169.662,280.338 169.474,280.958 169.123,281.484 C168.771,282.011 168.271,282.422 167.686,282.665 C167.101,282.907 166.457,282.971 165.836,282.847 C165.214,282.723 164.644,282.418 164.196,281.97 C163.748,281.522 163.443,280.951 163.32,280.329 C163.196,279.708 163.26,279.064 163.502,278.478 C163.744,277.893 164.155,277.392 164.681,277.04 C165.208,276.688 165.827,276.5 166.46,276.5 C167.309,276.5 168.124,276.838 168.724,277.439 C169.325,278.039 169.662,278.854 169.662,279.704 Z" id="Path" fill-opacity="0.15" fill="#D4D4D4" fill-rule="nonzero"></path>
            <path d="M169.904,219.204 C169.904,219.838 169.716,220.458 169.364,220.984 C169.013,221.511 168.512,221.922 167.927,222.165 C167.342,222.407 166.698,222.471 166.077,222.347 C165.456,222.223 164.886,221.918 164.438,221.47 C163.99,221.022 163.685,220.451 163.562,219.829 C163.438,219.208 163.501,218.564 163.744,217.978 C163.986,217.393 164.397,216.892 164.923,216.54 C165.45,216.188 166.069,216 166.702,216 C167.551,216 168.366,216.338 168.966,216.939 C169.567,217.539 169.904,218.354 169.904,219.204 Z" id="Path" fill-opacity="0.15" fill="#D4D4D4" fill-rule="nonzero"></path>
            <path d="M169.662,332.037 C169.662,332.887 169.325,333.702 168.724,334.303 C168.124,334.904 167.309,335.242 166.46,335.242 C165.611,335.242 164.797,334.904 164.196,334.303 C163.596,333.702 163.258,332.887 163.258,332.037 C163.258,331.187 163.596,330.372 164.196,329.772 C164.797,329.171 165.611,328.833 166.46,328.833 C167.309,328.833 168.124,329.171 168.724,329.772 C169.325,330.372 169.662,331.187 169.662,332.037 Z" id="Path" fill-opacity="0.15" fill="#D4D4D4" fill-rule="nonzero"></path>
            <path d="M169.662,378.004 C169.662,378.638 169.474,379.257 169.123,379.784 C168.771,380.311 168.271,380.722 167.686,380.965 C167.101,381.207 166.457,381.271 165.836,381.147 C165.214,381.023 164.644,380.718 164.196,380.27 C163.748,379.822 163.443,379.251 163.32,378.629 C163.196,378.008 163.26,377.364 163.502,376.778 C163.744,376.193 164.155,375.692 164.681,375.34 C165.208,374.988 165.827,374.8 166.46,374.8 C167.309,374.8 168.124,375.138 168.724,375.738 C169.325,376.339 169.662,377.154 169.662,378.004 Z" id="Path" fill-opacity="0.15" fill="#D4D4D4" fill-rule="nonzero"></path>
            <path d="M169.662,493.004 C169.662,493.854 169.325,494.669 168.724,495.27 C168.124,495.871 167.309,496.208 166.46,496.208 C165.611,496.208 164.797,495.871 164.196,495.27 C163.596,494.669 163.258,493.854 163.258,493.004 C163.258,492.154 163.596,491.339 164.196,490.738 C164.797,490.138 165.611,489.8 166.46,489.8 C167.309,489.8 168.124,490.138 168.724,490.738 C169.325,491.339 169.662,492.154 169.662,493.004 Z" id="Path" fill-opacity="0.15" fill="#D4D4D4" fill-rule="nonzero"></path>
            <path d="M169.662,523.012 C169.662,523.646 169.474,524.266 169.123,524.793 C168.771,525.32 168.271,525.73 167.686,525.973 C167.101,526.215 166.457,526.279 165.836,526.155 C165.214,526.031 164.644,525.726 164.196,525.278 C163.748,524.83 163.443,524.259 163.32,523.637 C163.196,523.016 163.26,522.372 163.502,521.786 C163.744,521.201 164.155,520.7 164.681,520.348 C165.208,519.996 165.827,519.808 166.46,519.808 C167.309,519.808 168.124,520.146 168.724,520.747 C169.325,521.348 169.662,522.163 169.662,523.012 Z" id="Path" fill-opacity="0.15" fill="#D4D4D4" fill-rule="nonzero"></path>
            <path d="M156.95,441.004 C156.95,441.638 156.762,442.258 156.411,442.784 C156.059,443.311 155.559,443.722 154.974,443.965 C154.389,444.207 153.745,444.271 153.124,444.147 C152.502,444.023 151.932,443.718 151.484,443.27 C151.036,442.822 150.731,442.251 150.608,441.629 C150.484,441.008 150.548,440.364 150.79,439.778 C151.032,439.193 151.443,438.692 151.969,438.34 C152.496,437.988 153.115,437.8 153.748,437.8 C154.597,437.8 155.412,438.138 156.012,438.738 C156.613,439.339 156.95,440.154 156.95,441.004 Z" id="Path" fill-opacity="0.15" fill="#D4D4D4" fill-rule="nonzero"></path>
            <path d="M182.342,441.004 C182.342,441.638 182.154,442.258 181.803,442.784 C181.451,443.311 180.951,443.722 180.366,443.965 C179.781,444.207 179.137,444.271 178.516,444.147 C177.894,444.023 177.324,443.718 176.876,443.27 C176.428,442.822 176.123,442.251 176,441.629 C175.876,441.008 175.94,440.364 176.182,439.778 C176.424,439.193 176.835,438.692 177.361,438.34 C177.888,437.988 178.507,437.8 179.14,437.8 C179.989,437.8 180.804,438.138 181.404,438.738 C182.005,439.339 182.342,440.154 182.342,441.004 Z" id="Path" fill-opacity="0.15" fill="#D4D4D4" fill-rule="nonzero"></path>
            <path d="M166.492,649.405 C187.413,649.405 204.372,632.433 204.372,611.498 C204.372,590.563 187.413,573.592 166.492,573.592 C145.572,573.592 128.612,590.563 128.612,611.498 C128.612,632.433 145.572,649.405 166.492,649.405 Z" id="Path" fill="#0E0E0D" fill-rule="nonzero"></path>
            <g id="Group" transform="translate(115.000000, 0.000000)" fill-rule="nonzero">
                <polygon id="Path" fill="url(#linearGradient-4)" points="94.816 31.0022 79.222 31.0022 79.222 35.1998 94.816 35.1998"></polygon>
                <polygon id="Path" fill="url(#linearGradient-4)" points="94.816 59.0394 79.222 59.0394 79.222 63.237 94.816 63.237"></polygon>
                <polygon id="Path" fill="url(#linearGradient-5)" points="94.816 87.0769 79.222 87.0769 79.222 91.274 94.816 91.274"></polygon>
                <polygon id="Path" fill="url(#linearGradient-4)" points="23.795 31.0022 8.201 31.0022 8.201 35.1998 23.795 35.1998"></polygon>
                <polygon id="Path" fill="url(#linearGradient-4)" points="23.795 59.0394 8.201 59.0394 8.201 63.237 23.795 63.237"></polygon>
                <polygon id="Path" fill="url(#linearGradient-5)" points="23.795 87.0769 8.201 87.0769 8.201 91.274 23.795 91.274"></polygon>
                <path d="M82.75,5.2422 L82.75,15.5788 L82.75,49.3923 L82.75,95.948 L82.75,104.492 C82.75,104.972 82.548,105.438 82.221,105.867 C81.895,106.296 81.456,106.674 81.014,106.971 C79.856,107.75 78.594,109.128 77.355,110.963 C76.112,112.802 74.883,115.113 73.796,117.775 C71.647,123.034 70.048,129.674 70.011,136.75 L31.989,136.75 C31.953,129.646 30.368,122.788 28.227,117.298 C27.144,114.52 25.916,112.088 24.671,110.149 C23.429,108.214 22.158,106.754 20.983,105.936 C20.544,105.63 20.106,105.248 19.78,104.816 C19.453,104.384 19.25,103.918 19.25,103.438 L19.25,94.894 L19.25,49.3923 L19.25,15.5788 L19.25,5.2557 C19.25,4.6845 19.529,4.1877 20.017,3.9696 C22.441,2.8867 30.463,0.25 51.067,0.25 C71.672,0.25 79.609,2.8868 81.997,3.9691 C82.477,4.1868 82.75,4.6776 82.75,5.2422 Z" id="Path" stroke="#BBA692" stroke-width="0.5" fill="url(#linearGradient-6)"></path>
                <path d="M99.659,37.0407 L99.418,37.3227 C98.804,38.0398 98.074,38.649 97.259,39.1251 C96.875,39.3487 96.475,39.5419 96.062,39.7028 L95.882,39.773 C94.62,40.2642 93.277,40.5162 91.923,40.5162 L91.262,40.5162 C89.764,40.5162 88.551,39.3026 88.551,37.8055 L88.551,36.2957 L88.551,29.9651 L88.551,28.4554 C88.551,26.9583 89.764,25.7446 91.262,25.7446 L91.923,25.7446 C93.277,25.7446 94.62,25.9967 95.882,26.4878 L96.062,26.558 C96.475,26.7189 96.875,26.9121 97.259,27.1357 C98.074,27.6118 98.804,28.221 99.418,28.9381 L99.659,29.2202 C100.082,29.7139 100.428,30.2691 100.683,30.8667 L100.786,31.1054 C101.06,31.7453 101.201,32.4342 101.201,33.1304 C101.201,33.8266 101.06,34.5155 100.786,35.1555 L100.683,35.3942 C100.428,35.9917 100.082,36.5469 99.659,37.0407 Z" id="Path" fill="url(#linearGradient-7)"></path>
                <path d="M1.542,37.0407 L1.783,37.3227 C2.397,38.0398 3.127,38.649 3.942,39.1251 C4.325,39.3487 4.726,39.5419 5.139,39.7028 L5.319,39.773 C6.581,40.2642 7.923,40.5162 9.278,40.5162 L9.939,40.5162 C11.436,40.5162 12.65,39.3026 12.65,37.8055 L12.65,36.2957 L12.65,29.9651 L12.65,28.4554 C12.65,26.9583 11.436,25.7446 9.939,25.7446 L9.278,25.7446 C7.923,25.7446 6.581,25.9967 5.319,26.4878 L5.139,26.558 C4.726,26.7189 4.325,26.9121 3.942,27.1357 C3.127,27.6118 2.397,28.221 1.783,28.9381 L1.542,29.2202 C1.119,29.7139 0.773,30.2691 0.518,30.8667 L0.415,31.1054 C0.141,31.7453 0,32.4342 0,33.1304 C0,33.8266 0.141,34.5155 0.415,35.1555 L0.518,35.3942 C0.773,35.9917 1.119,36.5469 1.542,37.0407 Z" id="Path" fill="url(#linearGradient-7)"></path>
                <path d="M1.542,65.1067 L1.783,65.3887 C2.397,66.1058 3.127,66.7151 3.942,67.1911 C4.325,67.4148 4.726,67.6079 5.139,67.7688 L5.319,67.839 C6.581,68.3302 7.923,68.5822 9.278,68.5822 L9.939,68.5822 C11.436,68.5822 12.65,67.3686 12.65,65.8715 L12.65,64.3618 L12.65,58.0311 L12.65,56.5214 C12.65,55.0243 11.436,53.8107 9.939,53.8107 L9.278,53.8107 C7.923,53.8107 6.581,54.0627 5.319,54.5539 L5.139,54.6241 C4.726,54.785 4.325,54.9781 3.942,55.2018 C3.127,55.6778 2.397,56.2871 1.783,57.0042 L1.542,57.2862 C1.119,57.7799 0.773,58.3351 0.518,58.9327 L0.415,59.1714 C0.141,59.8114 0,60.5003 0,61.1964 C0,61.8926 0.141,62.5815 0.415,63.2215 L0.518,63.4602 C0.773,64.0578 1.119,64.613 1.542,65.1067 Z" id="Path" fill="url(#linearGradient-8)"></path>
                <path d="M1.542,92.962 L1.783,93.244 C2.397,93.961 3.127,94.57 3.942,95.046 C4.325,95.27 4.726,95.463 5.139,95.624 L5.319,95.694 C6.581,96.185 7.923,96.437 9.278,96.437 L9.939,96.437 C11.436,96.437 12.65,95.223 12.65,93.726 L12.65,92.217 L12.65,85.886 L12.65,84.3763 C12.65,82.8792 11.436,81.6655 9.939,81.6655 L9.278,81.6655 C7.923,81.6655 6.581,81.9176 5.319,82.4087 L5.139,82.4789 C4.726,82.6398 4.325,82.833 3.942,83.0566 C3.127,83.5327 2.397,84.1419 1.783,84.859 L1.542,85.1411 C1.119,85.6348 0.773,86.19 0.518,86.7876 L0.415,87.0263 C0.141,87.6662 0,88.3551 0,89.0513 C0,89.7475 0.141,90.436 0.415,91.076 L0.518,91.315 C0.773,91.913 1.119,92.468 1.542,92.962 Z" id="Path" fill="url(#linearGradient-8)"></path>
                <path d="M99.659,65.1067 L99.418,65.3887 C98.804,66.1058 98.074,66.7151 97.259,67.1911 C96.875,67.4148 96.475,67.6079 96.062,67.7688 L95.882,67.839 C94.62,68.3302 93.277,68.5822 91.923,68.5822 L91.262,68.5822 C89.764,68.5822 88.551,67.3686 88.551,65.8715 L88.551,64.3618 L88.551,58.0311 L88.551,56.5214 C88.551,55.0243 89.764,53.8107 91.262,53.8107 L91.923,53.8107 C93.277,53.8107 94.62,54.0627 95.882,54.5539 L96.062,54.6241 C96.475,54.785 96.875,54.9781 97.259,55.2018 C98.074,55.6778 98.804,56.2871 99.418,57.0042 L99.659,57.2862 C100.082,57.7799 100.428,58.3351 100.683,58.9327 L100.786,59.1714 C101.06,59.8114 101.201,60.5003 101.201,61.1964 C101.201,61.8926 101.06,62.5815 100.786,63.2215 L100.683,63.4602 C100.428,64.0578 100.082,64.613 99.659,65.1067 Z" id="Path" fill="url(#linearGradient-8)"></path>
                <path d="M99.659,92.962 L99.418,93.244 C98.804,93.961 98.074,94.57 97.259,95.046 C96.875,95.27 96.475,95.463 96.062,95.624 L95.882,95.694 C94.62,96.185 93.277,96.437 91.923,96.437 L91.262,96.437 C89.764,96.437 88.551,95.223 88.551,93.726 L88.551,92.217 L88.551,85.886 L88.551,84.3763 C88.551,82.8792 89.764,81.6655 91.262,81.6655 L91.923,81.6655 C93.277,81.6655 94.62,81.9176 95.882,82.4087 L96.062,82.4789 C96.475,82.6398 96.875,82.833 97.259,83.0566 C98.074,83.5327 98.804,84.1419 99.418,84.859 L99.659,85.1411 C100.082,85.6348 100.428,86.19 100.683,86.7876 L100.786,87.0263 C101.06,87.6662 101.201,88.3551 101.201,89.0513 C101.201,89.7475 101.06,90.436 100.786,91.076 L100.683,91.315 C100.428,91.913 100.082,92.468 99.659,92.962 Z" id="Path" fill="url(#linearGradient-8)"></path>
                <path d="M34.6360876,33.1169 C34.6360876,34.1562 34.328,35.1722 33.751,36.0364 C33.174,36.9006 32.353,37.5741 31.394,37.9719 C30.434,38.3696 29.379,38.4737 28.36,38.2709 C27.341,38.0682 26.405,37.5677 25.671,36.8327 C24.937,36.0978 24.437,35.1615 24.234,34.1421 C24.031,33.1227 24.135,32.0661 24.533,31.1059 C24.93,30.1457 25.603,29.325 26.467,28.7475 C27.33,28.1701 28.346,27.8618035 29.384,27.8618035 C30.075,27.8577 30.76,27.9907 31.399,28.2533 C32.038,28.5158 32.619,28.9028 33.107,29.3916 C33.596,29.8804 33.982,30.4614 34.245,31.1009 C34.507,31.7404 34.64,32.4256 34.6360876,33.1169 Z" id="Path" fill="url(#linearGradient-9)"></path>
                <path d="M34.636,61.2504 C34.636,62.2897 34.328,63.3057 33.751,64.1699 C33.174,65.0341 32.353,65.7076 31.394,66.1054 C30.434,66.5031 29.378,66.6072 28.36,66.4044 C27.341,66.2017 26.405,65.7012 25.671,64.9662 C24.937,64.2313 24.437,63.2949 24.234,62.2756 C24.031,61.2562 24.135,60.1996 24.533,59.2394 C24.93,58.2791 25.603,57.4584 26.467,56.881 C27.33,56.3036 28.346,55.9954 29.384,55.9954 C30.777,55.9954 32.113,56.549 33.098,57.5345 C34.082,58.52 34.636,59.8567 34.636,61.2504 Z" id="Path" fill="url(#linearGradient-10)"></path>
                <path d="M33.003,89.1915 C33.003,90.231 32.695,91.247 32.118,92.111 C31.541,92.975 30.72,93.649 29.761,94.046 C28.801,94.444 27.746,94.548 26.727,94.346 C25.708,94.143 24.773,93.642 24.038,92.907 C23.304,92.172 22.804,91.236 22.601,90.217 C22.398,89.1973 22.502,88.1407 22.9,87.1805 C23.297,86.2203 23.97,85.3996 24.834,84.8222 C25.697,84.2447 26.713,83.9365 27.751,83.9365 C29.144,83.9365 30.48,84.4902 31.465,85.4757 C32.449,86.4612 33.003,87.7978 33.003,89.1915 Z" id="Path" fill="url(#linearGradient-11)"></path>
                <path d="M67.1039124,33.1169 C67.1039124,34.1562 67.412,35.1722 67.989,36.0364 C68.566,36.9006 69.386,37.5741 70.346,37.9719 C71.305,38.3696 72.361,38.4737 73.38,38.2709 C74.399,38.0682 75.334,37.5677 76.069,36.8327 C76.803,36.0978 77.303,35.1615 77.506,34.1421 C77.709,33.1227 77.605,32.0661 77.207,31.1059 C76.81,30.1457 76.137,29.325 75.273,28.7475 C74.409,28.1701 73.394,27.8618035 72.355,27.8618035 C71.665,27.8577 70.98,27.9907 70.341,28.2533 C69.702,28.5158 69.121,28.9028 68.633,29.3916 C68.144,29.8804 67.758,30.4614 67.495,31.1009 C67.233,31.7404 67.1,32.4256 67.1039124,33.1169 Z" id="Path" fill="url(#linearGradient-12)"></path>
                <path d="M67.104,61.2504 C67.104,62.2897 67.412,63.3057 67.989,64.1699 C68.566,65.0341 69.386,65.7076 70.346,66.1054 C71.305,66.5031 72.361,66.6072 73.38,66.4044 C74.399,66.2017 75.334,65.7012 76.069,64.9662 C76.803,64.2313 77.303,63.2949 77.506,62.2756 C77.708,61.2562 77.604,60.1996 77.207,59.2394 C76.81,58.2791 76.137,57.4584 75.273,56.881 C74.409,56.3036 73.394,55.9954 72.355,55.9954 C70.963,55.9954 69.627,56.549 68.642,57.5345 C67.657,58.52 67.104,59.8567 67.104,61.2504 Z" id="Path" fill="url(#linearGradient-13)"></path>
                <path d="M68.897,89.1915 C68.897,90.231 69.205,91.247 69.782,92.111 C70.359,92.975 71.179,93.649 72.139,94.046 C73.099,94.444 74.154,94.548 75.173,94.346 C76.192,94.143 77.127,93.642 77.862,92.907 C78.596,92.172 79.096,91.236 79.299,90.217 C79.502,89.1973 79.398,88.1407 79,87.1805 C78.603,86.2203 77.93,85.3996 77.066,84.8222 C76.202,84.2447 75.187,83.9365 74.149,83.9365 C72.758,83.9449 71.428,84.5013 70.445,85.4849 C69.462,86.4686 68.906,87.8004 68.897,89.1915 Z" id="Path" fill="url(#linearGradient-14)"></path>
                <path d="M34.426,16.3027 C34.777,16.8366 35.305,17.1035 36.008,17.1035 C36.454,17.1035 36.856,16.931 37.214,16.5859 C37.585,16.2311 37.771,15.8161 37.771,15.3408 L37.771,15.3311 C37.266,15.777 36.678,16 36.008,16 C35.272,16 34.644,15.7396 34.123,15.2188 C33.602,14.6979 33.342,14.0697 33.342,13.334 C33.342,12.5983 33.602,11.9701 34.123,11.4492 C34.644,10.9284 35.272,10.668 36.008,10.668 C36.74,10.668 37.367,10.9268 37.888,11.4443 C38.409,11.9619 38.671,12.5885 38.674,13.3242 L38.674,15.3408 C38.674,16.0602 38.394,16.6885 37.834,17.2256 C37.294,17.7464 36.685,18.0068 36.008,18.0068 C34.963,18.0068 34.182,17.6032 33.664,16.7959 C33.586,16.6755 33.57,16.5469 33.615,16.4102 C33.661,16.2734 33.752,16.1807 33.889,16.1318 L33.903,16.127 C34.121,16.0521 34.296,16.1107 34.426,16.3027 Z M37.771,13.3047 C37.764,12.8229 37.588,12.4144 37.243,12.0791 C36.901,11.7406 36.49,11.5713 36.008,11.5713 C35.52,11.5713 35.103,11.7438 34.758,12.0889 C34.416,12.4339 34.245,12.849 34.245,13.334 C34.245,13.8223 34.416,14.2389 34.758,14.584 C35.103,14.9258 35.52,15.0967 36.008,15.0967 C36.496,15.0967 36.911,14.9258 37.253,14.584 C37.598,14.2389 37.771,13.8223 37.771,13.334 L37.771,13.3047 Z M42.657,10.668 C42.101,10.668 41.627,10.8633 41.236,11.2539 C40.852,11.6445 40.657,12.1182 40.65,12.6748 L40.65,15.5557 C40.65,15.6794 40.694,15.7835 40.782,15.8682 C40.87,15.9561 40.974,16 41.095,16 L41.109,16 C41.23,16 41.334,15.9561 41.422,15.8682 C41.51,15.7835 41.554,15.6794 41.554,15.5557 L41.554,12.6748 C41.557,12.3688 41.664,12.1084 41.876,11.8936 C42.091,11.6787 42.351,11.5713 42.657,11.5713 L42.936,11.5713 C43.059,11.5713 43.165,11.5273 43.253,11.4395 C43.338,11.3548 43.38,11.2507 43.38,11.127 L43.38,11.1172 C43.38,10.9935 43.338,10.8877 43.253,10.7998 C43.165,10.7119 43.059,10.668 42.936,10.668 L42.657,10.668 Z M47.441,11.5811 C47.93,11.5811 48.345,11.7536 48.687,12.0986 C49.032,12.4437 49.204,12.8604 49.204,13.3486 C49.204,13.8337 49.032,14.2487 48.687,14.5938 C48.345,14.9388 47.93,15.1113 47.441,15.1113 C46.953,15.1113 46.536,14.9388 46.191,14.5938 C45.85,14.2487 45.679,13.8337 45.679,13.3486 C45.679,12.8604 45.85,12.4437 46.191,12.0986 C46.536,11.7536 46.953,11.5811 47.441,11.5811 Z M47.441,10.668 C46.706,10.668 46.077,10.9284 45.557,11.4492 C45.036,11.9701 44.775,12.5983 44.775,13.334 C44.775,14.0697 45.036,14.6979 45.557,15.2188 C46.077,15.7396 46.706,16 47.441,16 C48.177,16 48.805,15.7396 49.326,15.2188 C49.847,14.6979 50.107,14.0697 50.107,13.334 C50.107,12.5983 49.847,11.9701 49.326,11.4492 C48.805,10.9284 48.177,10.668 47.441,10.668 Z M54.457,11.5811 C54.945,11.5811 55.36,11.7536 55.702,12.0986 C56.047,12.4437 56.22,12.8604 56.22,13.3486 C56.22,13.8337 56.047,14.2487 55.702,14.5938 C55.36,14.9388 54.945,15.1113 54.457,15.1113 C53.969,15.1113 53.552,14.9388 53.207,14.5938 C52.865,14.2487 52.694,13.8337 52.694,13.3486 C52.694,12.8604 52.865,12.4437 53.207,12.0986 C53.552,11.7536 53.969,11.5811 54.457,11.5811 Z M54.457,10.668 C53.721,10.668 53.093,10.9284 52.572,11.4492 C52.051,11.9701 51.791,12.5983 51.791,13.334 C51.791,14.0697 52.051,14.6979 52.572,15.2188 C53.093,15.7396 53.721,16 54.457,16 C55.193,16 55.821,15.7396 56.342,15.2188 C56.863,14.6979 57.123,14.0697 57.123,13.334 C57.123,12.5983 56.863,11.9701 56.342,11.4492 C55.821,10.9284 55.193,10.668 54.457,10.668 Z M59.437,10.9414 C60.218,12.7611 60.761,14.029 61.067,14.7451 C61.067,14.7419 61.074,14.7549 61.087,14.7842 C61.106,14.833 61.129,14.833 61.155,14.7842 L61.165,14.7549 L62.801,10.9414 C62.879,10.7591 63.016,10.668 63.211,10.668 L63.221,10.668 C63.38,10.668 63.504,10.7347 63.592,10.8682 C63.68,11.0016 63.693,11.1416 63.631,11.2881 L61.814,15.5264 C61.691,15.8421 61.46,16 61.121,16 C60.779,16 60.547,15.8421 60.423,15.5264 L58.606,11.2881 C58.545,11.1416 58.558,11.0016 58.646,10.8682 C58.733,10.7347 58.857,10.668 59.017,10.668 L59.031,10.668 C59.227,10.668 59.362,10.7591 59.437,10.9414 Z M67.272,10.668 C66.716,10.668 66.242,10.8633 65.852,11.2539 C65.467,11.6445 65.272,12.1182 65.266,12.6748 L65.266,15.5557 C65.266,15.6794 65.31,15.7835 65.397,15.8682 C65.485,15.9561 65.59,16 65.71,16 L65.725,16 C65.845,16 65.949,15.9561 66.037,15.8682 C66.125,15.7835 66.169,15.6794 66.169,15.5557 L66.169,12.6748 C66.172,12.3688 66.28,12.1084 66.491,11.8936 C66.706,11.6787 66.966,11.5713 67.272,11.5713 L67.551,11.5713 C67.674,11.5713 67.78,11.5273 67.868,11.4395 C67.953,11.3548 67.995,11.2507 67.995,11.127 L67.995,11.1172 C67.995,10.9935 67.953,10.8877 67.868,10.7998 C67.78,10.7119 67.674,10.668 67.551,10.668 L67.272,10.668 Z" id="Shape" fill="#FFF7E8"></path>
            </g>
            <polyline id="Path" stroke="#FFFFFF" stroke-width="0.5" points="142.5 89.5 151 138 142 770"></polyline>
            <polyline id="Path" stroke="#FFFFFF" stroke-width="0.45" points="144.5 61 157 138.5 151.219 766.864"></polyline>
            <polyline id="Path" stroke="#FFFFFF" stroke-width="0.4" points="144 33 163.503 138.552 161.5 767.084"></polyline>
            <polyline id="Path" stroke="#FFFFFF" stroke-width="0.3" points="188.17 31 169.5 138.5 171.487 767.771"></polyline>
            <polyline id="Path" stroke="#FFFFFF" stroke-width="0.3" points="187.978 59.4491 176 138.5 181.446 767.542"></polyline>
            <polyline id="Path" stroke="#FFFFFF" stroke-width="0.3" points="189.5 89 181.5 138 190 770"></polyline>
            <path d="M147.121,33.1169 C147.121,33.6936 146.95,34.2574 146.63,34.7369 C146.31,35.2164 145.854,35.5902 145.322,35.8109 C144.79,36.0315 144.204,36.0893 143.639,35.9768 C143.073,35.8643 142.554,35.5866 142.147,35.1788 C141.739,34.771 141.462,34.2514 141.349,33.6858 C141.237,33.1202 141.294,32.5339 141.515,32.0011 C141.735,31.4683 142.109,31.0129 142.588,30.6925 C143.067,30.3721 143.631,30.201 144.207,30.201 C144.98,30.201 145.721,30.5083 146.267,31.0551 C146.814,31.6019 147.121,32.3436 147.121,33.1169 Z" id="Path" fill="url(#linearGradient-15)" fill-rule="nonzero"></path>
            <path d="M144.207,64.0701 C145.816,64.0701 147.121,62.7646 147.121,61.1542 C147.121,59.5438 145.816,58.2383 144.207,58.2383 C142.598,58.2383 141.293,59.5438 141.293,61.1542 C141.293,62.7646 142.598,64.0701 144.207,64.0701 Z" id="Path" fill="url(#linearGradient-16)" fill-rule="nonzero"></path>
            <path d="M145.328,89.1916 C145.328,89.7684 145.157,90.332 144.837,90.812 C144.516,91.291 144.061,91.665 143.529,91.886 C142.997,92.106 142.411,92.164 141.845,92.052 C141.28,91.939 140.761,91.661 140.353,91.253 C139.946,90.846 139.668,90.326 139.556,89.7605 C139.444,89.1949 139.501,88.6086 139.722,88.0758 C139.942,87.543 140.316,87.0876 140.795,86.7672 C141.274,86.4468 141.838,86.2758 142.414,86.2758 C143.187,86.2758 143.928,86.583 144.474,87.1298 C145.021,87.6766 145.328,88.4183 145.328,89.1916 Z" id="Path" fill="url(#linearGradient-17)" fill-rule="nonzero"></path>
            <path d="M184.264,33.1169 C184.264,33.6936 184.435,34.2574 184.755,34.7369 C185.075,35.2164 185.531,35.5902 186.063,35.8109 C186.595,36.0315 187.181,36.0893 187.747,35.9768 C188.312,35.8643 188.831,35.5866 189.239,35.1788 C189.646,34.771 189.924,34.2514 190.036,33.6858 C190.148,33.1202 190.091,32.5339 189.87,32.0011 C189.65,31.4683 189.276,31.0129 188.797,30.6925 C188.318,30.3721 187.754,30.201 187.178,30.201 C186.405,30.201 185.664,30.5083 185.118,31.0551 C184.571,31.6019 184.264,32.3436 184.264,33.1169 Z" id="Path" fill="url(#linearGradient-18)" fill-rule="nonzero"></path>
            <path d="M184.264,61.2505 C184.264,61.8272 184.435,62.3909 184.755,62.8704 C185.075,63.3499 185.531,63.7237 186.063,63.9444 C186.595,64.1651 187.181,64.2228 187.747,64.1103 C188.312,63.9978 188.831,63.7201 189.239,63.3123 C189.646,62.9045 189.924,62.3849 190.036,61.8193 C190.148,61.2537 190.091,60.6674 189.87,60.1346 C189.65,59.6018 189.276,59.1464 188.797,58.826 C188.318,58.5056 187.754,58.3346 187.178,58.3346 C186.405,58.3346 185.664,58.6418 185.118,59.1886 C184.571,59.7355 184.264,60.4771 184.264,61.2505 Z" id="Path" fill="url(#linearGradient-19)" fill-rule="nonzero"></path>
            <path d="M186.057,89.1916 C186.057,89.7684 186.228,90.332 186.549,90.812 C186.869,91.291 187.324,91.665 187.856,91.886 C188.389,92.106 188.974,92.164 189.54,92.052 C190.105,91.939 190.624,91.661 191.032,91.253 C191.439,90.846 191.717,90.326 191.829,89.7605 C191.942,89.1949 191.884,88.6086 191.663,88.0758 C191.443,87.543 191.069,87.0876 190.59,86.7672 C190.111,86.4468 189.548,86.2758 188.971,86.2758 C188.198,86.2758 187.457,86.583 186.911,87.1298 C186.364,87.6766 186.057,88.4183 186.057,89.1916 Z" id="Path" fill="url(#linearGradient-20)" fill-rule="nonzero"></path>
            <path d="M145.199,769.597 C145.199,770.319 144.985,771.026 144.584,771.626 C144.182,772.227 143.612,772.695 142.945,772.972 C142.278,773.248 141.544,773.32 140.836,773.179 C140.128,773.039 139.478,772.691 138.967,772.18 C138.457,771.669 138.109,771.018 137.968,770.309 C137.827,769.601 137.9,768.866 138.176,768.199 C138.452,767.532 138.92,766.961 139.52,766.56 C140.121,766.158 140.826,765.944 141.548,765.944 C142.517,765.944 143.445,766.329 144.13,767.014 C144.814,767.699 145.199,768.628 145.199,769.597 Z" id="Path" fill="#BBA693" fill-rule="nonzero"></path>
            <path d="M151.539,773.25 C153.555,773.25 155.189,771.614 155.189,769.597 C155.189,767.58 153.555,765.944 151.539,765.944 C149.523,765.944 147.889,767.58 147.889,769.597 C147.889,771.614 149.523,773.25 151.539,773.25 Z" id="Path" fill="#BBA693" fill-rule="nonzero"></path>
            <path d="M165.147,769.597 C165.147,770.319 164.933,771.026 164.532,771.626 C164.131,772.227 163.561,772.695 162.894,772.972 C162.227,773.248 161.493,773.32 160.785,773.179 C160.077,773.039 159.426,772.691 158.916,772.18 C158.405,771.669 158.058,771.018 157.917,770.309 C157.776,769.601 157.848,768.866 158.125,768.199 C158.401,767.532 158.869,766.961 159.469,766.56 C160.069,766.158 160.775,765.944 161.497,765.944 C162.465,765.944 163.394,766.329 164.078,767.014 C164.763,767.699 165.147,768.628 165.147,769.597 Z" id="Path" fill="#BBA693" fill-rule="nonzero"></path>
            <path d="M171.487,773.25 C173.503,773.25 175.138,771.614 175.138,769.597 C175.138,767.58 173.503,765.944 171.487,765.944 C169.471,765.944 167.837,767.58 167.837,769.597 C167.837,771.614 169.471,773.25 171.487,773.25 Z" id="Path" fill="#BBA693" fill-rule="nonzero"></path>
            <path d="M185.096,769.597 C185.096,770.319 184.882,771.026 184.481,771.626 C184.08,772.227 183.51,772.695 182.843,772.972 C182.176,773.248 181.442,773.32 180.734,773.179 C180.025,773.039 179.375,772.691 178.864,772.18 C178.354,771.669 178.006,771.018 177.866,770.309 C177.725,769.601 177.797,768.866 178.073,768.199 C178.35,767.532 178.817,766.961 179.418,766.56 C180.018,766.158 180.724,765.944 181.446,765.944 C182.414,765.944 183.342,766.329 184.027,767.014 C184.711,767.699 185.096,768.628 185.096,769.597 Z" id="Path" fill="#BBA693" fill-rule="nonzero"></path>
            <path d="M190.436,773.25 C192.452,773.25 194.086,771.614 194.086,769.597 C194.086,767.58 192.452,765.944 190.436,765.944 C188.42,765.944 186.786,767.58 186.786,769.597 C186.786,771.614 188.42,773.25 190.436,773.25 Z" id="Path" fill="#BBA693" fill-rule="nonzero"></path>
            <path d="M186.000343,137.878 C186.000343,138.235 185.862,138.577 185.617,138.829 C185.372,139.082 185.039,139.224 184.692,139.224 L147.339,139.224 C147.164,139.228 146.991,139.196 146.829,139.131 C146.666,139.065 146.519,138.966 146.394,138.841 C146.269,138.716 146.17,138.566 146.102,138.4 C146.035,138.235 146,138.057 146,137.878 C146,137.512 146.141,137.162 146.392,136.904 C146.643,136.645 146.984,136.5 147.339,136.5 L184.692,136.5 C184.867,136.5 185.039,136.536 185.2,136.605 C185.361,136.675 185.506,136.777 185.628,136.905 C185.75,137.034 185.845,137.186 185.909,137.353 C185.973,137.52 186.004,137.698 186.000343,137.878 Z" id="Path" fill="#67493C" fill-rule="nonzero"></path>
        </g>
    </g>
</svg>