<svg width="333" height="916" viewBox="0 0 333 916" fill="none" xmlns="http://www.w3.org/2000/svg">
<circle cx="170.5" cy="561" r="3" fill="white"/>
<circle cx="145" cy="549" r="3" fill="white"/>
<circle cx="179.5" cy="549" r="3" fill="white"/>
<circle cx="187" cy="549" r="3" fill="white"/>
<circle cx="153" cy="537" r="3" fill="white"/>
<circle cx="162" cy="537" r="3" fill="#F0A500"/>
<circle cx="171" cy="537" r="3" fill="white"/>
<circle cx="146" cy="507" r="3" fill="#F0A500"/>
<circle cx="153.5" cy="507" r="3" fill="white"/>
<circle cx="162" cy="507" r="3" fill="white"/>
<circle cx="170.5" cy="507" r="3" fill="white"/>
<circle cx="179.5" cy="507" r="3" fill="white"/>
<circle cx="186.5" cy="507" r="3" fill="#F0A500"/>
<circle cx="146" cy="477" r="3" fill="white"/>
<circle cx="154" cy="477" r="3" fill="white"/>
<circle cx="179" cy="477" r="3" fill="white"/>
<circle cx="186" cy="477" r="3" fill="white"/>
<circle cx="162.8" cy="459" r="3" fill="white"/>
<circle cx="170.5" cy="459" r="3" fill="#F0A500"/>
<circle cx="178.5" cy="441" r="3" fill="white"/>
<circle cx="147" cy="422" r="3" fill="white"/>
<circle cx="154.5" cy="422" r="3" fill="#F0A500"/>
<circle cx="162.5" cy="422" r="3" fill="white"/>
<circle cx="170.5" cy="422" r="3" fill="white"/>
<circle cx="185.5" cy="422" r="3" fill="white"/>
<circle cx="147.5" cy="378" r="3" fill="white"/>
<circle cx="155" cy="378" r="3" fill="white"/>
<circle cx="162.8" cy="378" r="3" fill="white"/>
<circle cx="178" cy="378" r="3" fill="#F0A500"/>
<circle cx="185" cy="378" r="3" fill="white"/>
<circle cx="170.5" cy="356" r="3" fill="white"/>
<circle cx="148" cy="332" r="3" fill="white"/>
<circle cx="177.5" cy="332" r="3" fill="white"/>
<circle cx="184" cy="332" r="3" fill="white"/>
<circle cx="155.5" cy="308" r="3" fill="white"/>
<circle cx="162.8" cy="308" r="3" fill="#F0A500"/>
<circle cx="170" cy="308" r="3" fill="white"/>
<circle cx="149.5" cy="250" r="3" fill="#F0A500"/>
<circle cx="156" cy="250" r="3" fill="white"/>
<circle cx="163" cy="250" r="3" fill="white"/>
<circle cx="170" cy="250" r="3" fill="white"/>
<circle cx="177" cy="250" r="3" fill="white"/>
<circle cx="183" cy="250" r="3" fill="#F0A500"/>
<circle cx="150" cy="188" r="3" fill="white"/>
<circle cx="156.5" cy="188" r="3" fill="white"/>
<circle cx="176" cy="188" r="3" fill="white"/>
<circle cx="182" cy="188" r="3" fill="white"/>
<circle cx="163.3" cy="155" r="3" fill="white"/>
<circle cx="169.7" cy="155" r="3" fill="#F0A500"/>
<circle cx="176" cy="138" r="3" fill="white"/>
</svg>
