<svg width="333" height="916" viewBox="0 0 333 916" fill="none" xmlns="http://www.w3.org/2000/svg">
<path d="M131.444 520.339C131.321 520.339 131.216 520.297 131.132 520.212C131.044 520.124 131 520.018 131 519.895L131 519.885C131 519.761 131.044 519.655 131.132 519.567C131.216 519.483 131.321 519.44 131.444 519.44L137.436 519.44L137.436 518.493C137.436 518.373 137.478 518.269 137.562 518.181C137.65 518.093 137.756 518.049 137.88 518.049L137.89 518.049C138.013 518.049 138.119 518.093 138.207 518.181C138.292 518.269 138.334 518.373 138.334 518.493L138.334 519.895C138.334 520.018 138.292 520.124 138.207 520.212C138.119 520.297 138.013 520.339 137.89 520.339L131.444 520.339ZM131.444 524.371C131.321 524.371 131.216 524.329 131.132 524.244C131.044 524.156 131 524.05 131 523.927L131 523.917C131 523.793 131.044 523.689 131.132 523.604C131.216 523.517 131.321 523.473 131.444 523.473L137.436 525.279L137.436 522.569C137.436 522.449 137.478 522.345 137.562 522.257C137.65 522.169 137.756 522.125 137.88 522.125L137.89 522.125C138.013 522.125 138.119 522.169 138.207 522.257C138.292 522.345 138.334 522.449 138.334 522.569L138.334 525.88C138.334 526.004 138.292 526.109 138.207 526.197C138.119 526.282 138.013 526.324 137.89 526.324L131.444 524.371Z" fill="#808080"/>
<path d="M131.444 490.339C131.321 490.339 131.216 490.297 131.132 490.212C131.044 490.124 131 490.018 131 489.895L131 489.885C131 489.761 131.044 489.655 131.132 489.567C131.216 489.483 131.321 489.44 131.444 489.44L137.436 489.44L137.436 488.493C137.436 488.373 137.478 488.269 137.562 488.181C137.65 488.093 137.756 488.049 137.88 488.049L137.89 488.049C138.013 488.049 138.119 488.093 138.207 488.181C138.292 488.269 138.334 488.373 138.334 488.493L138.334 489.895C138.334 490.018 138.292 490.124 138.207 490.212C138.119 490.297 138.013 490.339 137.89 490.339L131.444 490.339ZM134.33 495.055C134.33 495.39 134.211 495.676 133.974 495.914C133.736 496.148 133.45 496.266 133.114 496.266C132.779 496.266 132.493 496.148 132.255 495.914C132.021 495.676 131.903 495.39 131.903 495.055L131.903 493.106C131.903 492.986 131.859 492.882 131.771 492.794C131.684 492.706 131.578 492.662 131.454 492.662L131.444 492.662C131.321 492.662 131.216 492.706 131.132 492.794C131.044 492.882 131 492.986 131 493.106L131 495.055C131 495.641 131.207 496.14 131.62 496.554C132.034 496.967 132.532 497.174 133.114 497.174C133.7 497.174 134.2 496.967 134.613 496.554C135.023 496.14 135.229 495.641 135.229 495.055L135.229 493.565L137.436 493.565L137.436 496.085C137.436 496.205 137.478 496.31 137.562 496.397C137.65 496.485 137.756 496.529 137.88 496.529L137.89 496.529C138.013 496.529 138.119 496.485 138.207 496.397C138.292 496.31 138.334 496.205 138.334 496.085L138.334 493.106C138.334 492.986 138.292 492.882 138.207 492.794C138.119 492.706 138.013 492.662 137.89 492.662L134.774 492.662C134.651 492.662 134.547 492.706 134.462 492.794C134.374 492.882 134.33 492.986 134.33 493.106L134.33 495.055Z" fill="#808080"/>
<path d="M132.444 438.339C132.321 438.339 132.216 438.297 132.132 438.212C132.044 438.124 132 438.018 132 437.895L132 437.885C132 437.761 132.044 437.655 132.132 437.567C132.216 437.483 132.321 437.44 132.444 437.44L138.436 437.44L138.436 436.493C138.436 436.373 138.478 436.269 138.562 436.181C138.65 436.093 138.756 436.049 138.88 436.049L138.89 436.049C139.013 436.049 139.119 436.093 139.207 436.181C139.292 436.269 139.334 436.373 139.334 436.493L139.334 437.895C139.334 438.018 139.292 438.124 139.207 438.212C139.119 438.297 139.013 438.339 138.89 438.339L132.444 438.339ZM139.334 443.216C139.334 443.772 139.139 444.246 138.748 444.637C138.357 445.027 137.885 445.223 137.332 445.223C136.85 445.223 136.412 445.029 136.019 444.642C135.774 444.404 135.462 443.978 135.081 443.362C134.69 442.737 134.384 442.311 134.163 442.083C133.782 441.696 133.362 441.502 132.903 441.502L132.903 444.827C132.903 444.951 132.859 445.055 132.771 445.14C132.684 445.228 132.578 445.271 132.454 445.271L132.444 445.271C132.321 445.271 132.216 445.228 132.132 445.14C132.044 445.055 132 444.951 132 444.827L132 441.009C132 440.888 132.044 440.784 132.132 440.696C132.216 440.608 132.321 440.564 132.444 440.564L132.903 440.564C133.466 440.564 133.978 440.76 134.437 441.15C134.756 441.424 135.102 441.854 135.477 442.439C135.949 443.172 136.237 443.603 136.341 443.733C136.666 444.124 136.997 444.319 137.332 444.319C137.635 444.319 137.894 444.212 138.108 443.997C138.326 443.782 138.436 443.522 138.436 443.216L138.436 441.253C138.436 441.129 138.478 441.023 138.562 440.936C138.65 440.848 138.756 440.804 138.88 440.804L138.89 440.804C139.013 440.804 139.119 440.848 139.207 440.936C139.292 441.023 139.334 441.129 139.334 441.253L139.334 443.216Z" fill="#808080"/>
<path d="M137.004 378.603C137.004 378.271 137.123 377.986 137.36 377.748C137.598 377.51 137.884 377.392 138.22 377.392C138.555 377.392 138.841 377.51 139.079 377.748C139.317 377.986 139.436 378.271 139.436 378.603L139.436 379.242C139.436 379.577 139.317 379.864 139.079 380.102C138.841 380.339 138.555 380.458 138.22 380.458L137.004 380.458L137.004 378.603ZM140.334 378.603C140.334 378.02 140.127 377.522 139.714 377.108C139.304 376.695 138.806 376.488 138.22 376.488C137.637 376.488 137.139 376.695 136.726 377.108C136.312 377.522 136.105 378.02 136.105 378.603L136.105 380.458L135.114 380.453C134.779 380.453 134.493 380.336 134.255 380.102C134.021 379.864 133.903 379.577 133.903 379.242L133.903 377.328C133.903 377.204 133.859 377.099 133.771 377.011C133.684 376.926 133.578 376.884 133.454 376.884L133.444 376.884C133.321 376.884 133.216 376.926 133.132 377.011C133.044 377.099 133 377.204 133 377.328L133 379.242C133 379.828 133.207 380.328 133.62 380.741C134.034 381.155 134.532 381.361 135.114 381.361L138.22 381.361C138.806 381.361 139.304 381.155 139.714 380.741C140.127 380.328 140.334 379.828 140.334 379.242L140.334 378.603Z" fill="#808080"/>
<path d="M134.444 331.295C134.321 331.295 134.216 331.253 134.132 331.168C134.044 331.08 134 330.974 134 330.851L134 330.841C134 330.717 134.044 330.613 134.132 330.528C134.216 330.44 134.321 330.396 134.444 330.396L140.436 332.203L140.436 329.493C140.436 329.373 140.478 329.269 140.562 329.181C140.65 329.093 140.756 329.049 140.88 329.049L140.89 329.049C141.013 329.049 141.119 329.093 141.207 329.181C141.292 329.269 141.334 329.373 141.334 329.493L141.334 332.804C141.334 332.927 141.292 333.033 141.207 333.121C141.119 333.206 141.013 333.248 140.89 333.248L134.444 331.295Z" fill="#808080"/>
<path d="M138.33 280.979C138.33 281.314 138.211 281.6 137.974 281.838C137.736 282.072 137.45 282.189 137.114 282.189C136.779 282.189 136.493 282.072 136.255 281.838C136.021 281.6 135.903 281.314 135.903 280.979L135.903 279.03C135.903 278.91 135.859 278.806 135.771 278.718C135.684 278.63 135.578 278.586 135.454 278.586L135.444 278.586C135.321 278.586 135.216 278.63 135.132 278.718C135.044 278.806 135 278.91 135 279.03L135 280.979C135 281.564 135.207 282.064 135.62 282.478C136.034 282.891 136.532 283.098 137.114 283.098C137.7 283.098 138.2 282.891 138.613 282.478C139.023 282.064 139.229 281.564 139.229 280.979L139.229 279.489L141.436 279.489L141.436 282.009C141.436 282.129 141.478 282.233 141.562 282.321C141.65 282.409 141.756 282.453 141.88 282.453L141.89 282.453C142.013 282.453 142.119 282.409 142.207 282.321C142.292 282.233 142.334 282.129 142.334 282.009L142.334 279.03C142.334 278.91 142.292 278.806 142.207 278.718C142.119 278.63 142.013 278.586 141.89 278.586L138.774 278.586C138.651 278.586 138.547 278.63 138.462 278.718C138.374 278.806 138.33 278.91 138.33 279.03L138.33 280.979Z" fill="#808080"/>
<path d="M143.334 219.153C143.334 219.707 143.139 220.18 142.748 220.574C142.357 220.965 141.885 221.16 141.332 221.16C140.707 221.16 140.194 220.921 139.794 220.442C139.371 220.996 138.811 221.272 138.114 221.272C137.532 221.272 137.034 221.066 136.62 220.652C136.207 220.239 136 219.739 136 219.153L136 217.786C136 217.666 136.044 217.562 136.132 217.474C136.216 217.386 136.321 217.342 136.444 217.342L136.454 217.342C136.578 217.342 136.684 217.386 136.771 217.474C136.859 217.562 136.903 217.666 136.903 217.786L136.903 219.153C136.903 219.489 137.021 219.775 137.255 220.013C137.493 220.247 137.779 220.364 138.114 220.364C138.45 220.364 138.736 220.247 138.974 220.013C139.211 219.775 139.33 219.489 139.33 219.153L139.33 218.001C139.33 217.877 139.374 217.771 139.462 217.684C139.547 217.599 139.651 217.557 139.774 217.557L139.784 217.557C139.908 217.557 140.014 217.599 140.102 217.684C140.186 217.771 140.229 217.877 140.229 218.001L140.233 219.153C140.233 219.456 140.339 219.715 140.551 219.93C140.766 220.145 141.026 220.252 141.332 220.252C141.635 220.252 141.894 220.145 142.108 219.93C142.326 219.715 142.436 219.456 142.436 219.153L142.436 217.786C142.436 217.666 142.478 217.562 142.562 217.474C142.65 217.386 142.756 217.342 142.88 217.342L142.89 217.342C143.013 217.342 143.119 217.386 143.207 217.474C143.292 217.562 143.334 217.666 143.334 217.786L143.334 219.153Z" fill="#808080"/>
<path d="M137.444 158.339C137.321 158.339 137.216 158.297 137.132 158.212C137.044 158.124 137 158.018 137 157.895L137 157.885C137 157.761 137.044 157.655 137.132 157.567C137.216 157.483 137.321 157.44 137.444 157.44L143.436 157.44L143.436 156.493C143.436 156.373 143.478 156.269 143.562 156.181C143.65 156.093 143.756 156.049 143.88 156.049L143.89 156.049C144.013 156.049 144.119 156.093 144.207 156.181C144.292 156.269 144.334 156.373 144.334 156.493L144.334 157.895C144.334 158.018 144.292 158.124 144.207 158.212C144.119 158.297 144.013 158.339 143.89 158.339L137.444 158.339Z" fill="#808080"/>
</svg>
