<svg width="333" height="916" viewBox="0 0 333 916" fill="none" xmlns="http://www.w3.org/2000/svg">
<path d="M132.339 526.556C132.339 526.679 132.297 526.784 132.212 526.868C132.124 526.956 132.018 527 131.895 527H131.885C131.761 527 131.655 526.956 131.567 526.868C131.483 526.784 131.44 526.679 131.44 526.556V520.564H130.493C130.373 520.564 130.269 520.522 130.181 520.438C130.093 520.35 130.049 520.244 130.049 520.12V520.11C130.049 519.987 130.093 519.881 130.181 519.793C130.269 519.708 130.373 519.666 130.493 519.666H131.895C132.018 519.666 132.124 519.708 132.212 519.793C132.297 519.881 132.339 519.987 132.339 520.11V526.556ZM136.371 526.556C136.371 526.679 136.329 526.784 136.244 526.868C136.156 526.956 136.05 527 135.927 527H135.917C135.793 527 135.689 526.956 135.604 526.868C135.517 526.784 135.473 526.679 135.473 526.556L137.279 520.564H134.569C134.449 520.564 134.345 520.522 134.257 520.438C134.169 520.35 134.125 520.244 134.125 520.12V520.11C134.125 519.987 134.169 519.881 134.257 519.793C134.345 519.708 134.449 519.666 134.569 519.666H137.88C138.004 519.666 138.109 519.708 138.197 519.793C138.282 519.881 138.324 519.987 138.324 520.11L136.371 526.556Z" fill="#808080"/>
<path d="M132.339 496.556C132.339 496.679 132.297 496.784 132.212 496.868C132.124 496.956 132.018 497 131.895 497H131.885C131.761 497 131.655 496.956 131.567 496.868C131.483 496.784 131.44 496.679 131.44 496.556V490.564H130.493C130.373 490.564 130.269 490.522 130.181 490.438C130.093 490.35 130.049 490.244 130.049 490.12V490.11C130.049 489.987 130.093 489.881 130.181 489.793C130.269 489.708 130.373 489.666 130.493 489.666H131.895C132.018 489.666 132.124 489.708 132.212 489.793C132.297 489.881 132.339 489.987 132.339 490.11V496.556ZM137.055 493.67C137.39 493.67 137.676 493.789 137.914 494.026C138.148 494.264 138.266 494.55 138.266 494.886C138.266 495.221 138.148 495.507 137.914 495.745C137.676 495.979 137.39 496.097 137.055 496.097H135.106C134.986 496.097 134.882 496.141 134.794 496.229C134.706 496.316 134.662 496.422 134.662 496.546V496.556C134.662 496.679 134.706 496.784 134.794 496.868C134.882 496.956 134.986 497 135.106 497H137.055C137.641 497 138.14 496.793 138.554 496.38C138.967 495.966 139.174 495.468 139.174 494.886C139.174 494.3 138.967 493.8 138.554 493.387C138.14 492.977 137.641 492.771 137.055 492.771H135.565V490.564H138.085C138.205 490.564 138.31 490.522 138.397 490.438C138.485 490.35 138.529 490.244 138.529 490.12V490.11C138.529 489.987 138.485 489.881 138.397 489.793C138.31 489.708 138.205 489.666 138.085 489.666H135.106C134.986 489.666 134.882 489.708 134.794 489.793C134.706 489.881 134.662 489.987 134.662 490.11V493.226C134.662 493.349 134.706 493.453 134.794 493.538C134.882 493.626 134.986 493.67 135.106 493.67H137.055Z" fill="#808080"/>
<path d="M132.339 444.556C132.339 444.679 132.297 444.784 132.212 444.868C132.124 444.956 132.018 445 131.895 445H131.885C131.761 445 131.655 444.956 131.567 444.868C131.483 444.784 131.44 444.679 131.44 444.556V438.564H130.493C130.373 438.564 130.269 438.522 130.181 438.438C130.093 438.35 130.049 438.244 130.049 438.12V438.11C130.049 437.987 130.093 437.881 130.181 437.793C130.269 437.708 130.373 437.666 130.493 437.666H131.895C132.018 437.666 132.124 437.708 132.212 437.793C132.297 437.881 132.339 437.987 132.339 438.11V444.556ZM137.216 437.666C137.772 437.666 138.246 437.861 138.637 438.252C139.027 438.643 139.223 439.115 139.223 439.668C139.223 440.15 139.029 440.588 138.642 440.981C138.404 441.226 137.978 441.538 137.362 441.919C136.737 442.31 136.311 442.616 136.083 442.837C135.696 443.218 135.502 443.638 135.502 444.097H138.827C138.951 444.097 139.055 444.141 139.14 444.229C139.228 444.316 139.271 444.422 139.271 444.546V444.556C139.271 444.679 139.228 444.784 139.14 444.868C139.055 444.956 138.951 445 138.827 445H135.009C134.888 445 134.784 444.956 134.696 444.868C134.608 444.784 134.564 444.679 134.564 444.556V444.097C134.564 443.534 134.76 443.022 135.15 442.563C135.424 442.244 135.854 441.898 136.439 441.523C137.172 441.051 137.603 440.763 137.733 440.659C138.124 440.334 138.319 440.003 138.319 439.668C138.319 439.365 138.212 439.106 137.997 438.892C137.782 438.674 137.522 438.564 137.216 438.564H135.253C135.129 438.564 135.023 438.522 134.936 438.438C134.848 438.35 134.804 438.244 134.804 438.12V438.11C134.804 437.987 134.848 437.881 134.936 437.793C135.023 437.708 135.129 437.666 135.253 437.666H137.216Z" fill="#808080"/>
<path d="M137.603 378.996C137.271 378.996 136.986 378.877 136.748 378.64C136.51 378.402 136.392 378.116 136.392 377.78C136.392 377.445 136.51 377.159 136.748 376.921C136.986 376.683 137.271 376.564 137.603 376.564H138.242C138.577 376.564 138.864 376.683 139.102 376.921C139.339 377.159 139.458 377.445 139.458 377.78V378.996H137.603ZM137.603 375.666C137.02 375.666 136.522 375.873 136.108 376.286C135.695 376.696 135.488 377.194 135.488 377.78C135.488 378.363 135.695 378.861 136.108 379.274C136.522 379.688 137.02 379.895 137.603 379.895H139.458L139.453 380.886C139.453 381.221 139.336 381.507 139.102 381.745C138.864 381.979 138.577 382.097 138.242 382.097H136.328C136.204 382.097 136.099 382.141 136.011 382.229C135.926 382.316 135.884 382.422 135.884 382.546V382.556C135.884 382.679 135.926 382.784 136.011 382.868C136.099 382.956 136.204 383 136.328 383H138.242C138.828 383 139.328 382.793 139.741 382.38C140.155 381.966 140.361 381.468 140.361 380.886V377.78C140.361 377.194 140.155 376.696 139.741 376.286C139.328 375.873 138.828 375.666 138.242 375.666H137.603Z" fill="#808080"/>
<path d="M139.295 336.556C139.295 336.679 139.253 336.784 139.168 336.868C139.08 336.956 138.974 337 138.851 337H138.841C138.717 337 138.613 336.956 138.528 336.868C138.44 336.784 138.396 336.679 138.396 336.556L140.203 330.564H137.493C137.373 330.564 137.269 330.522 137.181 330.438C137.093 330.35 137.049 330.244 137.049 330.12V330.11C137.049 329.987 137.093 329.881 137.181 329.793C137.269 329.708 137.373 329.666 137.493 329.666H140.804C140.927 329.666 141.033 329.708 141.121 329.793C141.206 329.881 141.248 329.987 141.248 330.11L139.295 336.556Z" fill="#808080"/>
<path d="M139.979 280.67C140.314 280.67 140.6 280.789 140.838 281.026C141.072 281.264 141.189 281.55 141.189 281.886C141.189 282.221 141.072 282.507 140.838 282.745C140.6 282.979 140.314 283.097 139.979 283.097H138.03C137.91 283.097 137.806 283.141 137.718 283.229C137.63 283.316 137.586 283.422 137.586 283.546V283.556C137.586 283.679 137.63 283.784 137.718 283.868C137.806 283.956 137.91 284 138.03 284H139.979C140.564 284 141.064 283.793 141.478 283.38C141.891 282.966 142.098 282.468 142.098 281.886C142.098 281.3 141.891 280.8 141.478 280.387C141.064 279.977 140.564 279.771 139.979 279.771H138.489V277.564H141.009C141.129 277.564 141.233 277.522 141.321 277.438C141.409 277.35 141.453 277.244 141.453 277.12V277.11C141.453 276.987 141.409 276.881 141.321 276.793C141.233 276.708 141.129 276.666 141.009 276.666H138.03C137.91 276.666 137.806 276.708 137.718 276.793C137.63 276.881 137.586 276.987 137.586 277.11V280.226C137.586 280.349 137.63 280.453 137.718 280.538C137.806 280.626 137.91 280.67 138.03 280.67H139.979Z" fill="#808080"/>
<path d="M140.153 215.666C140.707 215.666 141.18 215.861 141.574 216.252C141.965 216.643 142.16 217.115 142.16 217.668C142.16 218.293 141.921 218.806 141.442 219.206C141.996 219.629 142.272 220.189 142.272 220.886C142.272 221.468 142.066 221.966 141.652 222.38C141.239 222.793 140.739 223 140.153 223H138.786C138.666 223 138.562 222.956 138.474 222.868C138.386 222.784 138.342 222.679 138.342 222.556V222.546C138.342 222.422 138.386 222.316 138.474 222.229C138.562 222.141 138.666 222.097 138.786 222.097H140.153C140.489 222.097 140.775 221.979 141.013 221.745C141.247 221.507 141.364 221.221 141.364 220.886C141.364 220.55 141.247 220.264 141.013 220.026C140.775 219.789 140.489 219.67 140.153 219.67H139.001C138.877 219.67 138.771 219.626 138.684 219.538C138.599 219.453 138.557 219.349 138.557 219.226V219.216C138.557 219.092 138.599 218.986 138.684 218.898C138.771 218.814 138.877 218.771 139.001 218.771L140.153 218.767C140.456 218.767 140.715 218.661 140.93 218.449C141.145 218.234 141.252 217.974 141.252 217.668C141.252 217.365 141.145 217.106 140.93 216.892C140.715 216.674 140.456 216.564 140.153 216.564H138.786C138.666 216.564 138.562 216.522 138.474 216.438C138.386 216.35 138.342 216.244 138.342 216.12V216.11C138.342 215.987 138.386 215.881 138.474 215.793C138.562 215.708 138.666 215.666 138.786 215.666H140.153Z" fill="#808080"/>
<path d="M143.339 157.556C143.339 157.679 143.297 157.784 143.212 157.868C143.124 157.956 143.018 158 142.895 158H142.885C142.761 158 142.655 157.956 142.567 157.868C142.483 157.784 142.44 157.679 142.44 157.556V151.564H141.493C141.373 151.564 141.269 151.522 141.181 151.438C141.093 151.35 141.049 151.244 141.049 151.12V151.11C141.049 150.987 141.093 150.881 141.181 150.793C141.269 150.708 141.373 150.666 141.493 150.666H142.895C143.018 150.666 143.124 150.708 143.212 150.793C143.297 150.881 143.339 150.987 143.339 151.11V157.556Z" fill="#808080"/>
</svg>
